<svg xmlns="http://www.w3.org/2000/svg" direction="ltr" width="709" height="664" viewBox="-32 -32 709 664" stroke-linecap="round" stroke-linejoin="round" style="background-color: rgb(249, 250, 251);" encoding="UTF-8&quot;"><defs><clipPath id="JoeRPhVcMqJfkhept8ADE"><path d="M0,0L645,0L645,600L0,600Z"/></clipPath><clipPath id="2LLM2eWEQ_TrWkGVGiU1c"><path d="M20,60L625,60L625,540L20,540Z"/></clipPath><clipPath id="jVOgtPindAAR-CG9-12kw"><path d="M20,60L625,60L625,540L20,540Z"/></clipPath><clipPath id="AWtEdYGMsbnZjI9VfIjH4"><path d="M20,60L625,60L625,540L20,540Z"/></clipPath><clipPath id="utisD7HuJn5pUoyp1M_h6"><path d="M20,60L625,60L625,540L20,540Z"/></clipPath><clipPath id="WgCtb750DLwHOyo7LukEl"><path d="M20,60L625,60L625,540L20,540Z"/></clipPath><clipPath id="A4xjRT8e7_i0hYS4B-w6K"><path d="M20,60L625,60L625,540L20,540Z"/></clipPath><clipPath id="XRZDWdBDIvASYs3XxeDee"><path d="M20,60L625,60L625,540L20,540Z"/></clipPath><clipPath id="cYHZzrzPoJAX9q-j12_1T"><path d="M20,60L625,60L625,540L20,540Z"/></clipPath><clipPath id="SZllRI9SpwpsMeGjca6xb"><path d="M20,60L625,60L625,540L20,540Z"/></clipPath><clipPath id="vcRGwPOj5azmtesqIju0C"><path d="M20,60L625,60L625,540L20,540Z"/></clipPath><clipPath id="c6Not0fbGIQ91VCc5n_Yb"><path d="M20,60L625,60L625,540L20,540Z"/></clipPath><clipPath id="GnQV3N8hhW-ghtgGKreTu"><path d="M20,60L625,60L625,540L20,540Z"/></clipPath></defs><g transform="matrix(1, 0, 0, 1, 0, 0)" opacity="1"><g><rect width="645" height="600" fill="#fcfffe" stroke="#1d1d1d" stroke-width="1" rx="1" ry="1"/><rect x="-8px" y="-36px" width="184.765625px" height="32px" rx="4px" ry="4px" fill="rgb(249, 250, 251)"/><text font-size="12px" font-family="Inter, sans-serif" font-style="normal" font-weight="normal" line-height="12px" dominant-baseline="mathematical" alignment-baseline="mathematical"><tspan alignment-baseline="mathematical" x="0px" y="-20px">module.vpc_example_complete​</tspan></text></g></g><g clip-path="url(#JoeRPhVcMqJfkhept8ADE)"><g transform="matrix(1, 0, 0, 1, 20, 60)" opacity="1"><g><rect width="605" height="480" fill="#fcfffe" stroke="#1d1d1d" stroke-width="1" rx="1" ry="1"/><rect x="-8px" y="-36px" width="77.3671875px" height="32px" rx="4px" ry="4px" fill="rgb(249, 250, 251)"/><text font-size="12px" font-family="Inter, sans-serif" font-style="normal" font-weight="normal" line-height="12px" dominant-baseline="mathematical" alignment-baseline="mathematical"><tspan alignment-baseline="mathematical" x="0px" y="-20px">module.vpc​</tspan></text></g></g></g><g clip-path="url(#cYHZzrzPoJAX9q-j12_1T)"><g transform="matrix(1, 0, 0, 1, 240, 360)" opacity="1"><g><rect width="120" height="120" rx="4" fill="white" stroke="black" stroke-width="2"/><text x="5" y="28" style="font-family: sans-serif; font-size: 10px; fill: #504758;" dominant-baseline="middle">Internet Gateway</text><clipPath id="clip-round-corners-wrubd1i3j"><rect x="0" y="0" width="64" height="64" rx="4" ry="4"/></clipPath><svg width="58" height="58" viewBox="0 0 64 64" version="1.1" xmlns="http://www.w3.org/2000/svg" xmlns:xlink="http://www.w3.org/1999/xlink" x="31" y="48" clip-path="url(#clip-round-corners-wrubd1i3j)">
    <title>Icon-Architecture/48/Arch_Amazon-Virtual-Private-Cloud_48</title>
    <g id="Icon-Architecture/48/Arch_Amazon-Virtual-Private-Cloud_48" stroke="none" stroke-width="1" fill="none" fill-rule="evenodd">
        <g id="Icon-Architecture-BG/48/Networking-Content-Delivery" fill="#8C4FFF">
            <rect id="Rectangle" x="0" y="0" width="64" height="64"/>
        </g>
        <path d="M48,33.9772867 L44.499,32.5082867 L44.499,46.8782867 C47.906,46.1472867 47.998,42.1812867 48,41.9952867 L48,33.9772867 Z M42.499,46.9232867 L42.499,32.5082867 L39,33.9772867 L39,42.0042867 C39.008,42.4662867 39.183,46.3392867 42.499,46.9232867 L42.499,46.9232867 Z M43.112,30.0822867 C43.358,29.9772867 43.638,29.9782867 43.886,30.0812867 L49.387,32.3902867 C49.759,32.5462867 50,32.9092867 50,33.3122867 L50,42.0042867 C49.978,44.4312867 48.562,49.0042867 43.37,49.0042867 C38.393,49.0042867 37.026,44.4322867 37,42.0152867 L37,33.3122867 C37,32.9092867 37.241,32.5462867 37.613,32.3902867 L43.112,30.0822867 Z M52,30.7922867 L43.492,27.0922867 L34.9998912,30.6682867 L34.9998912,41.0252867 C34.999,41.0902867 34.963,46.0092867 37.807,48.8942867 C39.187,50.2942867 41.059,51.0042867 43.37,51.0042867 C51.808,51.0042867 51.996,41.4252867 52,41.0182867 L52,30.7922867 Z M54,30.1362867 L54,41.0252867 C53.973,45.1732867 51.716,53.0042867 43.37,53.0042867 C40.498,53.0042867 38.145,52.0902867 36.373,50.2882867 C32.941,46.7972867 32.996,41.2432867 33,41.0082867 L33,30.0042867 C33,29.6022867 33.241,29.2382867 33.612,29.0822867 L43.111,25.0822867 C43.363,24.9762867 43.647,24.9782867 43.897,25.0872867 L53.398,29.2192867 C53.764,29.3782867 54,29.7382867 54,30.1362867 L54,30.1362867 Z M19,38.0042867 L30,38.0042867 L30,40.0042867 L19,40.0042867 C14.216,40.0042867 10.271,36.4832867 10.02,31.9882867 C10.002,31.8132867 10,31.5992867 10,31.3852867 C10,26.0862867 13.654,24.0382867 15.919,23.2782867 C15.902,23.0632867 15.891,22.8432867 15.891,22.6262867 C15.891,18.0392867 18.658,13.7012867 22.621,12.0792867 C27.58,10.0492867 33.235,10.9372867 36.695,14.2852867 C37.718,15.2822867 38.604,16.5962867 39.343,18.2062867 C40.299,17.4222867 41.392,17.0042867 42.523,17.0042867 C45.234,17.0042867 48.281,19.2962867 48.9,23.0622867 C51.069,23.3442867 52.936,24.6392867 53.896,26.5822867 L52.104,27.4692867 C51.34,25.9252867 49.806,25.0042867 48,25.0042867 C47.471,25.0042867 47.033,24.5912867 47.002,24.0632867 C46.807,20.7622867 44.275,19.0042867 42.523,19.0042867 C41.55,19.0042867 40.582,19.5742867 39.797,20.6082867 C39.575,20.8992867 39.215,21.0482867 38.852,20.9932867 C38.49,20.9382867 38.187,20.6912867 38.062,20.3482867 C37.327,18.3462867 36.398,16.7892867 35.302,15.7202867 C32.406,12.9172867 27.615,12.1962867 23.379,13.9302867 C19.775,15.4052867 17.891,19.4212867 17.891,22.6262867 C17.891,23.0262867 17.947,23.5032867 17.993,23.8862867 C18.053,24.3862867 17.73,24.8532867 17.24,24.9752867 C15.283,25.4592867 12,26.9372867 12,31.3852867 C12,31.5352867 11.998,31.6852867 12.013,31.8362867 C12.209,35.3122867 15.276,38.0042867 19,38.0042867 L19,38.0042867 Z" id="Amazon-Virtual-Private-Cloud_Icon_48_Squid" fill="#FFFFFF"/>
    </g>
</svg><rect x="90.6" y="5" width="24.4" height="16" rx="8" ry="8" fill="#37bb65"/><text x="102.8" y="14" style="font-family: sans-serif; font-size: 12px; fill: black; text-anchor: middle; dominant-baseline: middle;">16</text><text x="5" y="14" style="font-family: sans-serif; font-size: 14px; fill: black;" dominant-baseline="middle">this</text></g></g></g><g clip-path="url(#2LLM2eWEQ_TrWkGVGiU1c)"><g transform="matrix(1, 0, 0, 1, 0, 0)" opacity="1"><g><defs><mask id="shape_module.vpc_example_complete.module.vpc.aws_internet_gateway.this-module.vpc_example_complete.module.vpc.aws_internet_gateway.this:1712759439094_clip"><rect x="200" y="320" width="200" height="200" fill="white"/><path d="M NaN NaN L 300 420 L NaN NaN" fill="none" stroke="none"/></mask></defs><g mask="url(#shape_module.vpc_example_complete.module.vpc.aws_internet_gateway.this-module.vpc_example_complete.module.vpc.aws_internet_gateway.this:1712759439094_clip)"><rect x="-100" y="-100" width="200" height="200" fill="transparent" stroke="none"/><path d="M300,420L300,420" fill="none" stroke="#1d1d1d" stroke-width="2" stroke-dasharray="none" stroke-dashoffset="none"/></g><path d="M NaN NaN L 300 420 L NaN NaN" fill="none" stroke="#1d1d1d" stroke-width="2"/></g></g></g><g clip-path="url(#SZllRI9SpwpsMeGjca6xb)"><g transform="matrix(1, 0, 0, 1, 55, 120)" opacity="1"><g><rect width="120" height="120" rx="4" fill="white" stroke="black" stroke-width="2"/><text x="5" y="28" style="font-family: sans-serif; font-size: 10px; fill: #504758;" dominant-baseline="middle">Subnet</text><clipPath id="clip-round-corners-e77l7y86h"><rect x="0" y="0" width="64" height="64" rx="4" ry="4"/></clipPath><svg width="58" height="58" viewBox="0 0 64 64" version="1.1" xmlns="http://www.w3.org/2000/svg" xmlns:xlink="http://www.w3.org/1999/xlink" x="31" y="48" clip-path="url(#clip-round-corners-e77l7y86h)">
    <title>Icon-Architecture/48/Arch_Amazon-Virtual-Private-Cloud_48</title>
    <g id="Icon-Architecture/48/Arch_Amazon-Virtual-Private-Cloud_48" stroke="none" stroke-width="1" fill="none" fill-rule="evenodd">
        <g id="Icon-Architecture-BG/48/Networking-Content-Delivery" fill="#8C4FFF">
            <rect id="Rectangle" x="0" y="0" width="64" height="64"/>
        </g>
        <path d="M48,33.9772867 L44.499,32.5082867 L44.499,46.8782867 C47.906,46.1472867 47.998,42.1812867 48,41.9952867 L48,33.9772867 Z M42.499,46.9232867 L42.499,32.5082867 L39,33.9772867 L39,42.0042867 C39.008,42.4662867 39.183,46.3392867 42.499,46.9232867 L42.499,46.9232867 Z M43.112,30.0822867 C43.358,29.9772867 43.638,29.9782867 43.886,30.0812867 L49.387,32.3902867 C49.759,32.5462867 50,32.9092867 50,33.3122867 L50,42.0042867 C49.978,44.4312867 48.562,49.0042867 43.37,49.0042867 C38.393,49.0042867 37.026,44.4322867 37,42.0152867 L37,33.3122867 C37,32.9092867 37.241,32.5462867 37.613,32.3902867 L43.112,30.0822867 Z M52,30.7922867 L43.492,27.0922867 L34.9998912,30.6682867 L34.9998912,41.0252867 C34.999,41.0902867 34.963,46.0092867 37.807,48.8942867 C39.187,50.2942867 41.059,51.0042867 43.37,51.0042867 C51.808,51.0042867 51.996,41.4252867 52,41.0182867 L52,30.7922867 Z M54,30.1362867 L54,41.0252867 C53.973,45.1732867 51.716,53.0042867 43.37,53.0042867 C40.498,53.0042867 38.145,52.0902867 36.373,50.2882867 C32.941,46.7972867 32.996,41.2432867 33,41.0082867 L33,30.0042867 C33,29.6022867 33.241,29.2382867 33.612,29.0822867 L43.111,25.0822867 C43.363,24.9762867 43.647,24.9782867 43.897,25.0872867 L53.398,29.2192867 C53.764,29.3782867 54,29.7382867 54,30.1362867 L54,30.1362867 Z M19,38.0042867 L30,38.0042867 L30,40.0042867 L19,40.0042867 C14.216,40.0042867 10.271,36.4832867 10.02,31.9882867 C10.002,31.8132867 10,31.5992867 10,31.3852867 C10,26.0862867 13.654,24.0382867 15.919,23.2782867 C15.902,23.0632867 15.891,22.8432867 15.891,22.6262867 C15.891,18.0392867 18.658,13.7012867 22.621,12.0792867 C27.58,10.0492867 33.235,10.9372867 36.695,14.2852867 C37.718,15.2822867 38.604,16.5962867 39.343,18.2062867 C40.299,17.4222867 41.392,17.0042867 42.523,17.0042867 C45.234,17.0042867 48.281,19.2962867 48.9,23.0622867 C51.069,23.3442867 52.936,24.6392867 53.896,26.5822867 L52.104,27.4692867 C51.34,25.9252867 49.806,25.0042867 48,25.0042867 C47.471,25.0042867 47.033,24.5912867 47.002,24.0632867 C46.807,20.7622867 44.275,19.0042867 42.523,19.0042867 C41.55,19.0042867 40.582,19.5742867 39.797,20.6082867 C39.575,20.8992867 39.215,21.0482867 38.852,20.9932867 C38.49,20.9382867 38.187,20.6912867 38.062,20.3482867 C37.327,18.3462867 36.398,16.7892867 35.302,15.7202867 C32.406,12.9172867 27.615,12.1962867 23.379,13.9302867 C19.775,15.4052867 17.891,19.4212867 17.891,22.6262867 C17.891,23.0262867 17.947,23.5032867 17.993,23.8862867 C18.053,24.3862867 17.73,24.8532867 17.24,24.9752867 C15.283,25.4592867 12,26.9372867 12,31.3852867 C12,31.5352867 11.998,31.6852867 12.013,31.8362867 C12.209,35.3122867 15.276,38.0042867 19,38.0042867 L19,38.0042867 Z" id="Amazon-Virtual-Private-Cloud_Icon_48_Squid" fill="#FFFFFF"/>
    </g>
</svg><rect x="90.6" y="5" width="24.4" height="16" rx="8" ry="8" fill="#37bb65"/><text x="102.8" y="14" style="font-family: sans-serif; font-size: 12px; fill: black; text-anchor: middle; dominant-baseline: middle;">10</text><text x="5" y="14" style="font-family: sans-serif; font-size: 14px; fill: black;" dominant-baseline="middle">elasticache</text></g></g></g><g clip-path="url(#jVOgtPindAAR-CG9-12kw)"><g transform="matrix(1, 0, 0, 1, 0, 0)" opacity="1"><g><defs><mask id="shape_module.vpc_example_complete.module.vpc.aws_subnet.elasticache-module.vpc_example_complete.module.vpc.aws_internet_gateway.this:1712759439094_clip"><rect x="61.25" y="140" width="285.78441353626766" height="311.2878878308337" fill="white"/><path d="M 246.23815223027495 345.34095854484264 L 247.03441353626766 351.2878878308337 L 241.48609104709337 349.00400570687844" fill="none" stroke="none"/></mask></defs><g mask="url(#shape_module.vpc_example_complete.module.vpc.aws_subnet.elasticache-module.vpc_example_complete.module.vpc.aws_internet_gateway.this:1712759439094_clip)"><rect x="-100" y="-100" width="285.78441353626766" height="311.2878878308337" fill="transparent" stroke="none"/><path d="M161.25,240L247.03441353626766,351.2878878308337" fill="none" stroke="#1d1d1d" stroke-width="2" stroke-dasharray="none" stroke-dashoffset="none"/></g><path d="M 246.23815223027495 345.34095854484264 L 247.03441353626766 351.2878878308337 L 241.48609104709337 349.00400570687844" fill="none" stroke="#1d1d1d" stroke-width="2"/></g></g></g><g clip-path="url(#AWtEdYGMsbnZjI9VfIjH4)"><g transform="matrix(1, 0, 0, 1, 0, 0)" opacity="1"><g><defs><mask id="shape_module.vpc_example_complete.module.vpc.aws_subnet.elasticache-module.vpc_example_complete.module.vpc.aws_subnet.elasticache:1712759439094_clip"><rect x="15" y="80" width="200" height="200" fill="white"/><path d="M NaN NaN L 115 180 L NaN NaN" fill="none" stroke="none"/></mask></defs><g mask="url(#shape_module.vpc_example_complete.module.vpc.aws_subnet.elasticache-module.vpc_example_complete.module.vpc.aws_subnet.elasticache:1712759439094_clip)"><rect x="-100" y="-100" width="200" height="200" fill="transparent" stroke="none"/><path d="M115,180L115,180" fill="none" stroke="#1d1d1d" stroke-width="2" stroke-dasharray="none" stroke-dashoffset="none"/></g><path d="M NaN NaN L 115 180 L NaN NaN" fill="none" stroke="#1d1d1d" stroke-width="2"/></g></g></g><g clip-path="url(#vcRGwPOj5azmtesqIju0C)"><g transform="matrix(1, 0, 0, 1, 255, 120)" opacity="1"><g><rect width="120" height="120" rx="4" fill="white" stroke="black" stroke-width="2"/><text x="5" y="28" style="font-family: sans-serif; font-size: 10px; fill: #504758;" dominant-baseline="middle">Subnet</text><clipPath id="clip-round-corners-wk0aua1hl"><rect x="0" y="0" width="64" height="64" rx="4" ry="4"/></clipPath><svg width="58" height="58" viewBox="0 0 64 64" version="1.1" xmlns="http://www.w3.org/2000/svg" xmlns:xlink="http://www.w3.org/1999/xlink" x="31" y="48" clip-path="url(#clip-round-corners-wk0aua1hl)">
    <title>Icon-Architecture/48/Arch_Amazon-Virtual-Private-Cloud_48</title>
    <g id="Icon-Architecture/48/Arch_Amazon-Virtual-Private-Cloud_48" stroke="none" stroke-width="1" fill="none" fill-rule="evenodd">
        <g id="Icon-Architecture-BG/48/Networking-Content-Delivery" fill="#8C4FFF">
            <rect id="Rectangle" x="0" y="0" width="64" height="64"/>
        </g>
        <path d="M48,33.9772867 L44.499,32.5082867 L44.499,46.8782867 C47.906,46.1472867 47.998,42.1812867 48,41.9952867 L48,33.9772867 Z M42.499,46.9232867 L42.499,32.5082867 L39,33.9772867 L39,42.0042867 C39.008,42.4662867 39.183,46.3392867 42.499,46.9232867 L42.499,46.9232867 Z M43.112,30.0822867 C43.358,29.9772867 43.638,29.9782867 43.886,30.0812867 L49.387,32.3902867 C49.759,32.5462867 50,32.9092867 50,33.3122867 L50,42.0042867 C49.978,44.4312867 48.562,49.0042867 43.37,49.0042867 C38.393,49.0042867 37.026,44.4322867 37,42.0152867 L37,33.3122867 C37,32.9092867 37.241,32.5462867 37.613,32.3902867 L43.112,30.0822867 Z M52,30.7922867 L43.492,27.0922867 L34.9998912,30.6682867 L34.9998912,41.0252867 C34.999,41.0902867 34.963,46.0092867 37.807,48.8942867 C39.187,50.2942867 41.059,51.0042867 43.37,51.0042867 C51.808,51.0042867 51.996,41.4252867 52,41.0182867 L52,30.7922867 Z M54,30.1362867 L54,41.0252867 C53.973,45.1732867 51.716,53.0042867 43.37,53.0042867 C40.498,53.0042867 38.145,52.0902867 36.373,50.2882867 C32.941,46.7972867 32.996,41.2432867 33,41.0082867 L33,30.0042867 C33,29.6022867 33.241,29.2382867 33.612,29.0822867 L43.111,25.0822867 C43.363,24.9762867 43.647,24.9782867 43.897,25.0872867 L53.398,29.2192867 C53.764,29.3782867 54,29.7382867 54,30.1362867 L54,30.1362867 Z M19,38.0042867 L30,38.0042867 L30,40.0042867 L19,40.0042867 C14.216,40.0042867 10.271,36.4832867 10.02,31.9882867 C10.002,31.8132867 10,31.5992867 10,31.3852867 C10,26.0862867 13.654,24.0382867 15.919,23.2782867 C15.902,23.0632867 15.891,22.8432867 15.891,22.6262867 C15.891,18.0392867 18.658,13.7012867 22.621,12.0792867 C27.58,10.0492867 33.235,10.9372867 36.695,14.2852867 C37.718,15.2822867 38.604,16.5962867 39.343,18.2062867 C40.299,17.4222867 41.392,17.0042867 42.523,17.0042867 C45.234,17.0042867 48.281,19.2962867 48.9,23.0622867 C51.069,23.3442867 52.936,24.6392867 53.896,26.5822867 L52.104,27.4692867 C51.34,25.9252867 49.806,25.0042867 48,25.0042867 C47.471,25.0042867 47.033,24.5912867 47.002,24.0632867 C46.807,20.7622867 44.275,19.0042867 42.523,19.0042867 C41.55,19.0042867 40.582,19.5742867 39.797,20.6082867 C39.575,20.8992867 39.215,21.0482867 38.852,20.9932867 C38.49,20.9382867 38.187,20.6912867 38.062,20.3482867 C37.327,18.3462867 36.398,16.7892867 35.302,15.7202867 C32.406,12.9172867 27.615,12.1962867 23.379,13.9302867 C19.775,15.4052867 17.891,19.4212867 17.891,22.6262867 C17.891,23.0262867 17.947,23.5032867 17.993,23.8862867 C18.053,24.3862867 17.73,24.8532867 17.24,24.9752867 C15.283,25.4592867 12,26.9372867 12,31.3852867 C12,31.5352867 11.998,31.6852867 12.013,31.8362867 C12.209,35.3122867 15.276,38.0042867 19,38.0042867 L19,38.0042867 Z" id="Amazon-Virtual-Private-Cloud_Icon_48_Squid" fill="#FFFFFF"/>
    </g>
</svg><rect x="91" y="5" width="24" height="16" rx="8" ry="8" fill="#37bb65"/><text x="103" y="14" style="font-family: sans-serif; font-size: 12px; fill: black; text-anchor: middle; dominant-baseline: middle;">3</text><text x="5" y="14" style="font-family: sans-serif; font-size: 14px; fill: black;" dominant-baseline="middle">private</text></g></g></g><g clip-path="url(#utisD7HuJn5pUoyp1M_h6)"><g transform="matrix(1, 0, 0, 1, 0, 0)" opacity="1"><g><defs><mask id="shape_module.vpc_example_complete.module.vpc.aws_subnet.private-module.vpc_example_complete.module.vpc.aws_internet_gateway.this:1712759439094_clip"><rect x="204.43616114770697" y="140" width="206.81383885229303" height="309.0214216366882" fill="white"/><path d="M 307.75444596588517 344.02252317148134 L 304.43616114770697 349.0214216366882 L 301.76613049498786 343.64825345455023" fill="none" stroke="none"/></mask></defs><g mask="url(#shape_module.vpc_example_complete.module.vpc.aws_subnet.private-module.vpc_example_complete.module.vpc.aws_internet_gateway.this:1712759439094_clip)"><rect x="-100" y="-100" width="206.81383885229303" height="309.0214216366882" fill="transparent" stroke="none"/><path d="M311.25,240L304.43616114770697,349.0214216366882" fill="none" stroke="#1d1d1d" stroke-width="2" stroke-dasharray="none" stroke-dashoffset="none"/></g><path d="M 307.75444596588517 344.02252317148134 L 304.43616114770697 349.0214216366882 L 301.76613049498786 343.64825345455023" fill="none" stroke="#1d1d1d" stroke-width="2"/></g></g></g><g clip-path="url(#c6Not0fbGIQ91VCc5n_Yb)"><g transform="matrix(1, 0, 0, 1, 425, 120)" opacity="1"><g><rect width="120" height="120" rx="4" fill="white" stroke="black" stroke-width="2"/><text x="5" y="28" style="font-family: sans-serif; font-size: 10px; fill: #504758;" dominant-baseline="middle">Subnet</text><clipPath id="clip-round-corners-dqnbf1fu0"><rect x="0" y="0" width="64" height="64" rx="4" ry="4"/></clipPath><svg width="58" height="58" viewBox="0 0 64 64" version="1.1" xmlns="http://www.w3.org/2000/svg" xmlns:xlink="http://www.w3.org/1999/xlink" x="31" y="48" clip-path="url(#clip-round-corners-dqnbf1fu0)">
    <title>Icon-Architecture/48/Arch_Amazon-Virtual-Private-Cloud_48</title>
    <g id="Icon-Architecture/48/Arch_Amazon-Virtual-Private-Cloud_48" stroke="none" stroke-width="1" fill="none" fill-rule="evenodd">
        <g id="Icon-Architecture-BG/48/Networking-Content-Delivery" fill="#8C4FFF">
            <rect id="Rectangle" x="0" y="0" width="64" height="64"/>
        </g>
        <path d="M48,33.9772867 L44.499,32.5082867 L44.499,46.8782867 C47.906,46.1472867 47.998,42.1812867 48,41.9952867 L48,33.9772867 Z M42.499,46.9232867 L42.499,32.5082867 L39,33.9772867 L39,42.0042867 C39.008,42.4662867 39.183,46.3392867 42.499,46.9232867 L42.499,46.9232867 Z M43.112,30.0822867 C43.358,29.9772867 43.638,29.9782867 43.886,30.0812867 L49.387,32.3902867 C49.759,32.5462867 50,32.9092867 50,33.3122867 L50,42.0042867 C49.978,44.4312867 48.562,49.0042867 43.37,49.0042867 C38.393,49.0042867 37.026,44.4322867 37,42.0152867 L37,33.3122867 C37,32.9092867 37.241,32.5462867 37.613,32.3902867 L43.112,30.0822867 Z M52,30.7922867 L43.492,27.0922867 L34.9998912,30.6682867 L34.9998912,41.0252867 C34.999,41.0902867 34.963,46.0092867 37.807,48.8942867 C39.187,50.2942867 41.059,51.0042867 43.37,51.0042867 C51.808,51.0042867 51.996,41.4252867 52,41.0182867 L52,30.7922867 Z M54,30.1362867 L54,41.0252867 C53.973,45.1732867 51.716,53.0042867 43.37,53.0042867 C40.498,53.0042867 38.145,52.0902867 36.373,50.2882867 C32.941,46.7972867 32.996,41.2432867 33,41.0082867 L33,30.0042867 C33,29.6022867 33.241,29.2382867 33.612,29.0822867 L43.111,25.0822867 C43.363,24.9762867 43.647,24.9782867 43.897,25.0872867 L53.398,29.2192867 C53.764,29.3782867 54,29.7382867 54,30.1362867 L54,30.1362867 Z M19,38.0042867 L30,38.0042867 L30,40.0042867 L19,40.0042867 C14.216,40.0042867 10.271,36.4832867 10.02,31.9882867 C10.002,31.8132867 10,31.5992867 10,31.3852867 C10,26.0862867 13.654,24.0382867 15.919,23.2782867 C15.902,23.0632867 15.891,22.8432867 15.891,22.6262867 C15.891,18.0392867 18.658,13.7012867 22.621,12.0792867 C27.58,10.0492867 33.235,10.9372867 36.695,14.2852867 C37.718,15.2822867 38.604,16.5962867 39.343,18.2062867 C40.299,17.4222867 41.392,17.0042867 42.523,17.0042867 C45.234,17.0042867 48.281,19.2962867 48.9,23.0622867 C51.069,23.3442867 52.936,24.6392867 53.896,26.5822867 L52.104,27.4692867 C51.34,25.9252867 49.806,25.0042867 48,25.0042867 C47.471,25.0042867 47.033,24.5912867 47.002,24.0632867 C46.807,20.7622867 44.275,19.0042867 42.523,19.0042867 C41.55,19.0042867 40.582,19.5742867 39.797,20.6082867 C39.575,20.8992867 39.215,21.0482867 38.852,20.9932867 C38.49,20.9382867 38.187,20.6912867 38.062,20.3482867 C37.327,18.3462867 36.398,16.7892867 35.302,15.7202867 C32.406,12.9172867 27.615,12.1962867 23.379,13.9302867 C19.775,15.4052867 17.891,19.4212867 17.891,22.6262867 C17.891,23.0262867 17.947,23.5032867 17.993,23.8862867 C18.053,24.3862867 17.73,24.8532867 17.24,24.9752867 C15.283,25.4592867 12,26.9372867 12,31.3852867 C12,31.5352867 11.998,31.6852867 12.013,31.8362867 C12.209,35.3122867 15.276,38.0042867 19,38.0042867 L19,38.0042867 Z" id="Amazon-Virtual-Private-Cloud_Icon_48_Squid" fill="#FFFFFF"/>
    </g>
</svg><rect x="90.6" y="5" width="24.4" height="16" rx="8" ry="8" fill="#37bb65"/><text x="102.8" y="14" style="font-family: sans-serif; font-size: 12px; fill: black; text-anchor: middle; dominant-baseline: middle;">17</text><text x="5" y="14" style="font-family: sans-serif; font-size: 14px; fill: black;" dominant-baseline="middle">public</text></g></g></g><g clip-path="url(#WgCtb750DLwHOyo7LukEl)"><g transform="matrix(1, 0, 0, 1, 0, 0)" opacity="1"><g><defs><mask id="shape_module.vpc_example_complete.module.vpc.aws_subnet.public-module.vpc_example_complete.module.vpc.aws_internet_gateway.this:1712759439094_clip"><rect x="252.96558646373234" y="140" width="285.78441353626766" height="311.2878878308337" fill="white"/><path d="M 358.5139089529066 349.00400570687844 L 352.96558646373234 351.2878878308337 L 353.761847769725 345.34095854484264" fill="none" stroke="none"/></mask></defs><g mask="url(#shape_module.vpc_example_complete.module.vpc.aws_subnet.public-module.vpc_example_complete.module.vpc.aws_internet_gateway.this:1712759439094_clip)"><rect x="-100" y="-100" width="285.78441353626766" height="311.2878878308337" fill="transparent" stroke="none"/><path d="M438.75,240L352.96558646373234,351.2878878308337" fill="none" stroke="#1d1d1d" stroke-width="2" stroke-dasharray="none" stroke-dashoffset="none"/></g><path d="M 358.5139089529066 349.00400570687844 L 352.96558646373234 351.2878878308337 L 353.761847769725 345.34095854484264" fill="none" stroke="#1d1d1d" stroke-width="2"/></g></g></g><g clip-path="url(#A4xjRT8e7_i0hYS4B-w6K)"><g transform="matrix(1, 0, 0, 1, 0, 0)" opacity="1"><g><defs><mask id="shape_module.vpc_example_complete.module.vpc.aws_subnet.public-module.vpc_example_complete.module.vpc.aws_subnet.public:1712759439094_clip"><rect x="385" y="80" width="200" height="200" fill="white"/><path d="M NaN NaN L 485 180 L NaN NaN" fill="none" stroke="none"/></mask></defs><g mask="url(#shape_module.vpc_example_complete.module.vpc.aws_subnet.public-module.vpc_example_complete.module.vpc.aws_subnet.public:1712759439094_clip)"><rect x="-100" y="-100" width="200" height="200" fill="transparent" stroke="none"/><path d="M485,180L485,180" fill="none" stroke="#1d1d1d" stroke-width="2" stroke-dasharray="none" stroke-dashoffset="none"/></g><path d="M NaN NaN L 485 180 L NaN NaN" fill="none" stroke="#1d1d1d" stroke-width="2"/></g></g></g><g clip-path="url(#GnQV3N8hhW-ghtgGKreTu)"><g transform="matrix(1, 0, 0, 1, 440, 360)" opacity="1"><g><rect width="120" height="120" rx="4" fill="white" stroke="black" stroke-width="2"/><text x="5" y="28" style="font-family: sans-serif; font-size: 10px; fill: #504758;" dominant-baseline="middle">Vpc</text><clipPath id="clip-round-corners-ykwfzxeyb"><rect x="0" y="0" width="64" height="64" rx="4" ry="4"/></clipPath><svg width="58" height="58" viewBox="0 0 64 64" version="1.1" xmlns="http://www.w3.org/2000/svg" xmlns:xlink="http://www.w3.org/1999/xlink" x="31" y="48" clip-path="url(#clip-round-corners-ykwfzxeyb)">
    <title>Icon-Architecture/48/Arch_Amazon-Virtual-Private-Cloud_48</title>
    <g id="Icon-Architecture/48/Arch_Amazon-Virtual-Private-Cloud_48" stroke="none" stroke-width="1" fill="none" fill-rule="evenodd">
        <g id="Icon-Architecture-BG/48/Networking-Content-Delivery" fill="#8C4FFF">
            <rect id="Rectangle" x="0" y="0" width="64" height="64"/>
        </g>
        <path d="M48,33.9772867 L44.499,32.5082867 L44.499,46.8782867 C47.906,46.1472867 47.998,42.1812867 48,41.9952867 L48,33.9772867 Z M42.499,46.9232867 L42.499,32.5082867 L39,33.9772867 L39,42.0042867 C39.008,42.4662867 39.183,46.3392867 42.499,46.9232867 L42.499,46.9232867 Z M43.112,30.0822867 C43.358,29.9772867 43.638,29.9782867 43.886,30.0812867 L49.387,32.3902867 C49.759,32.5462867 50,32.9092867 50,33.3122867 L50,42.0042867 C49.978,44.4312867 48.562,49.0042867 43.37,49.0042867 C38.393,49.0042867 37.026,44.4322867 37,42.0152867 L37,33.3122867 C37,32.9092867 37.241,32.5462867 37.613,32.3902867 L43.112,30.0822867 Z M52,30.7922867 L43.492,27.0922867 L34.9998912,30.6682867 L34.9998912,41.0252867 C34.999,41.0902867 34.963,46.0092867 37.807,48.8942867 C39.187,50.2942867 41.059,51.0042867 43.37,51.0042867 C51.808,51.0042867 51.996,41.4252867 52,41.0182867 L52,30.7922867 Z M54,30.1362867 L54,41.0252867 C53.973,45.1732867 51.716,53.0042867 43.37,53.0042867 C40.498,53.0042867 38.145,52.0902867 36.373,50.2882867 C32.941,46.7972867 32.996,41.2432867 33,41.0082867 L33,30.0042867 C33,29.6022867 33.241,29.2382867 33.612,29.0822867 L43.111,25.0822867 C43.363,24.9762867 43.647,24.9782867 43.897,25.0872867 L53.398,29.2192867 C53.764,29.3782867 54,29.7382867 54,30.1362867 L54,30.1362867 Z M19,38.0042867 L30,38.0042867 L30,40.0042867 L19,40.0042867 C14.216,40.0042867 10.271,36.4832867 10.02,31.9882867 C10.002,31.8132867 10,31.5992867 10,31.3852867 C10,26.0862867 13.654,24.0382867 15.919,23.2782867 C15.902,23.0632867 15.891,22.8432867 15.891,22.6262867 C15.891,18.0392867 18.658,13.7012867 22.621,12.0792867 C27.58,10.0492867 33.235,10.9372867 36.695,14.2852867 C37.718,15.2822867 38.604,16.5962867 39.343,18.2062867 C40.299,17.4222867 41.392,17.0042867 42.523,17.0042867 C45.234,17.0042867 48.281,19.2962867 48.9,23.0622867 C51.069,23.3442867 52.936,24.6392867 53.896,26.5822867 L52.104,27.4692867 C51.34,25.9252867 49.806,25.0042867 48,25.0042867 C47.471,25.0042867 47.033,24.5912867 47.002,24.0632867 C46.807,20.7622867 44.275,19.0042867 42.523,19.0042867 C41.55,19.0042867 40.582,19.5742867 39.797,20.6082867 C39.575,20.8992867 39.215,21.0482867 38.852,20.9932867 C38.49,20.9382867 38.187,20.6912867 38.062,20.3482867 C37.327,18.3462867 36.398,16.7892867 35.302,15.7202867 C32.406,12.9172867 27.615,12.1962867 23.379,13.9302867 C19.775,15.4052867 17.891,19.4212867 17.891,22.6262867 C17.891,23.0262867 17.947,23.5032867 17.993,23.8862867 C18.053,24.3862867 17.73,24.8532867 17.24,24.9752867 C15.283,25.4592867 12,26.9372867 12,31.3852867 C12,31.5352867 11.998,31.6852867 12.013,31.8362867 C12.209,35.3122867 15.276,38.0042867 19,38.0042867 L19,38.0042867 Z" id="Amazon-Virtual-Private-Cloud_Icon_48_Squid" fill="#FFFFFF"/>
    </g>
</svg><rect x="91" y="5" width="24" height="16" rx="8" ry="8" fill="#37bb65"/><text x="103" y="14" style="font-family: sans-serif; font-size: 12px; fill: black; text-anchor: middle; dominant-baseline: middle;">4</text><text x="5" y="14" style="font-family: sans-serif; font-size: 14px; fill: black;" dominant-baseline="middle">this</text></g></g></g><g clip-path="url(#XRZDWdBDIvASYs3XxeDee)"><g transform="matrix(1, 0, 0, 1, 0, 0)" opacity="1"><g><defs><mask id="shape_module.vpc_example_complete.module.vpc.aws_vpc.this-module.vpc_example_complete.module.vpc.aws_vpc.this:1712759439094_clip"><rect x="400" y="320" width="200" height="200" fill="white"/><path d="M NaN NaN L 500 420 L NaN NaN" fill="none" stroke="none"/></mask></defs><g mask="url(#shape_module.vpc_example_complete.module.vpc.aws_vpc.this-module.vpc_example_complete.module.vpc.aws_vpc.this:1712759439094_clip)"><rect x="-100" y="-100" width="200" height="200" fill="transparent" stroke="none"/><path d="M500,420L500,420" fill="none" stroke="#1d1d1d" stroke-width="2" stroke-dasharray="none" stroke-dashoffset="none"/></g><path d="M NaN NaN L 500 420 L NaN NaN" fill="none" stroke="#1d1d1d" stroke-width="2"/></g></g></g></svg>