<svg xmlns="http://www.w3.org/2000/svg" direction="ltr" width="1159" height="904" viewBox="-32 -32 1159 904" stroke-linecap="round" stroke-linejoin="round" style="background-color: rgb(249, 250, 251);" encoding="UTF-8&quot;"><defs><clipPath id="tG34ejJWM66-ir4P9CynS"><path d="M0,0L1095,0L1095,840L0,840Z"/></clipPath><clipPath id="enZgkQjCWoup_1Hy_iAV5"><path d="M20,60L1075,60L1075,780L20,780Z"/></clipPath><clipPath id="DSlzoN19hVTPLiJf3GhnO"><path d="M20,60L1075,60L1075,780L20,780Z"/></clipPath><clipPath id="yd_GjkpCrHZ1LXkjn4W7r"><path d="M20,60L1075,60L1075,780L20,780Z"/></clipPath><clipPath id="03t9h9j0SvghUEbEtR3qc"><path d="M20,60L1075,60L1075,780L20,780Z"/></clipPath><clipPath id="249OccOs8iGad7Rgaymry"><path d="M20,60L1075,60L1075,780L20,780Z"/></clipPath><clipPath id="rBPGqBQ8gwbxNEDRDZ7k7"><path d="M20,60L1075,60L1075,780L20,780Z"/></clipPath><clipPath id="VuoXsamrq8HLANcMyTFDc"><path d="M20,60L1075,60L1075,780L20,780Z"/></clipPath><clipPath id="BBT03w4w5HgnKZbeVPwDM"><path d="M20,60L1075,60L1075,780L20,780Z"/></clipPath><clipPath id="0gMCSFFD8q_3PdBiho-Fc"><path d="M20,60L1075,60L1075,780L20,780Z"/></clipPath><clipPath id="UPkRlw6DJRHaIRHik-1CP"><path d="M20,60L1075,60L1075,780L20,780Z"/></clipPath><clipPath id="jIVhJPrkQ_1q2yPNNqLYB"><path d="M20,60L1075,60L1075,780L20,780Z"/></clipPath><clipPath id="PZEVAg_G373PZyxAhHf4D"><path d="M20,60L1075,60L1075,780L20,780Z"/></clipPath><clipPath id="EeNPFC5Yys-hDDkm7-sfw"><path d="M20,60L1075,60L1075,780L20,780Z"/></clipPath><clipPath id="THQ0lalNslgwt-EYdwqP1"><path d="M20,60L1075,60L1075,780L20,780Z"/></clipPath><clipPath id="Fyp0ZWkQ-lV_b6ozjB9dr"><path d="M20,60L1075,60L1075,780L20,780Z"/></clipPath><clipPath id="0pVIIURYaNWXOJScEb2Ik"><path d="M20,60L1075,60L1075,780L20,780Z"/></clipPath><clipPath id="v0d5-xOSKD8Oo67NcYyHI"><path d="M20,60L1075,60L1075,780L20,780Z"/></clipPath><clipPath id="ANrFa4f3CJzQFd09xfO86"><path d="M20,60L1075,60L1075,780L20,780Z"/></clipPath><clipPath id="scdCQH0qW6N93j88yxl_1"><path d="M20,60L1075,60L1075,780L20,780Z"/></clipPath><clipPath id="ICKXMrwdexJzIel6RcJjk"><path d="M20,60L1075,60L1075,780L20,780Z"/></clipPath><clipPath id="6M-QY6N99EO5dFG--hlJQ"><path d="M20,60L1075,60L1075,780L20,780Z"/></clipPath></defs><g transform="matrix(1, 0, 0, 1, 0, 0)" opacity="1"><g><rect width="1095" height="840" fill="#fcfffe" stroke="#1d1d1d" stroke-width="1" rx="1" ry="1"/><rect x="-8px" y="-36px" width="184.765625px" height="32px" rx="4px" ry="4px" fill="rgb(249, 250, 251)"/><text font-size="12px" font-family="Inter, sans-serif" font-style="normal" font-weight="normal" line-height="12px" dominant-baseline="mathematical" alignment-baseline="mathematical"><tspan alignment-baseline="mathematical" x="0px" y="-20px">module.vpc_example_complete​</tspan></text></g></g><g clip-path="url(#tG34ejJWM66-ir4P9CynS)"><g transform="matrix(1, 0, 0, 1, 20, 60)" opacity="1"><g><rect width="1055" height="720" fill="#fcfffe" stroke="#1d1d1d" stroke-width="1" rx="1" ry="1"/><rect x="-8px" y="-36px" width="77.3671875px" height="32px" rx="4px" ry="4px" fill="rgb(249, 250, 251)"/><text font-size="12px" font-family="Inter, sans-serif" font-style="normal" font-weight="normal" line-height="12px" dominant-baseline="mathematical" alignment-baseline="mathematical"><tspan alignment-baseline="mathematical" x="0px" y="-20px">module.vpc​</tspan></text></g></g></g><g clip-path="url(#PZEVAg_G373PZyxAhHf4D)"><g transform="matrix(1, 0, 0, 1, 55, 600)" opacity="1"><g><rect width="120" height="120" rx="4" fill="white" stroke="black" stroke-width="2"/><text x="5" y="28" style="font-family: sans-serif; font-size: 10px; fill: #504758;" dominant-baseline="middle">Db Subnet Group</text><clipPath id="clip-round-corners-bfdqbn32w"><rect x="0" y="0" width="64" height="64" rx="4" ry="4"/></clipPath><svg width="58" height="58" viewBox="0 0 64 64" version="1.1" xmlns="http://www.w3.org/2000/svg" xmlns:xlink="http://www.w3.org/1999/xlink" x="31" y="48" clip-path="url(#clip-round-corners-bfdqbn32w)">
    <title>Icon-Architecture/48/Arch_Amazon-RDS_48</title>
    <g id="Icon-Architecture/48/Arch_Amazon-RDS_48" stroke="none" stroke-width="1" fill="none" fill-rule="evenodd">
        <g id="Icon-Architecture-BG/48/Database" fill="#C925D1">
            <rect id="Rectangle" x="0" y="0" width="64" height="64"/>
        </g>
        <path d="M54,11 L54,19 L52,19 L52,13.414 L45.707,19.707 L44.293,18.293 L50.586,12 L45.125,12 L45.125,10 L53,10 C53.553,10 54,10.448 54,11 L54,11 Z M12,18.875 L10,18.875 L10,11 C10,10.448 10.447,10 11,10 L19,10 L19,12 L13.414,12 L19.707,18.293 L18.293,19.707 L12,13.414 L12,18.875 Z M19.707,45.707 L13.414,52 L18.875,52 L18.875,54 L11,54 C10.447,54 10,53.552 10,53 L10,45 L12,45 L12,50.586 L18.293,44.293 L19.707,45.707 Z M51.5,31.781 C51.5,29.352 48.634,26.932 43.833,25.307 L44.474,23.413 C50.21,25.354 53.5,28.404 53.5,31.781 C53.5,35.158 50.21,38.208 44.474,40.15 L43.833,38.255 C48.634,36.631 51.5,34.21 51.5,31.781 L51.5,31.781 Z M12.543,31.781 C12.543,34.105 15.224,36.46 19.715,38.081 L19.035,39.961 C13.639,38.014 10.543,35.033 10.543,31.781 C10.543,28.53 13.639,25.548 19.035,23.601 L19.715,25.482 C15.224,27.103 12.543,29.458 12.543,31.781 L12.543,31.781 Z M52,45.125 L54,45.125 L54,53 C54,53.552 53.553,54 53,54 L45,54 L45,52 L50.586,52 L44.293,45.707 L45.707,44.293 L52,50.586 L52,45.125 Z M32.022,31.402 C26.999,31.402 24.126,30.059 24,29.483 L24,26.257 C26.159,27.266 29.609,27.593 32,27.593 C34.391,27.593 37.841,27.266 40,26.257 L40,29.483 C39.894,30.057 37.051,31.402 32.022,31.402 L32.022,31.402 Z M32.022,37.13 C26.999,37.13 24.126,35.786 24,35.21 L24,31.956 C25.953,32.937 29.055,33.402 32.022,33.402 C34.973,33.402 38.055,32.938 40,31.96 L40,35.21 C39.894,35.785 37.052,37.13 32.022,37.13 L32.022,37.13 Z M32,42.268 C26.95,42.268 24.104,40.917 24,40.346 L24,37.683 C25.953,38.665 29.055,39.13 32.022,39.13 C34.973,39.13 38.055,38.666 40,37.687 L40,40.342 C39.896,40.917 37.05,42.268 32,42.268 L32,42.268 Z M32,22.193 C36.971,22.193 39.642,23.37 39.982,23.894 C39.642,24.417 36.971,25.593 32,25.593 C26.909,25.593 24.233,24.361 24,23.949 L24,23.93 C24.233,23.426 26.909,22.193 32,22.193 L32,22.193 Z M32,20.193 C28.286,20.193 22,20.973 22,23.894 L22,40.346 C22,43.041 27.184,44.268 32,44.268 C36.816,44.268 42,43.041 42,40.346 L42,23.894 C42,20.973 35.714,20.193 32,20.193 L32,20.193 Z" id="Amazon-RDS_Icon_48_Squid" fill="#FFFFFF"/>
    </g>
</svg><rect x="91" y="5" width="24" height="16" rx="8" ry="8" fill="#37bb65"/><text x="103" y="14" style="font-family: sans-serif; font-size: 12px; fill: black; text-anchor: middle; dominant-baseline: middle;">1</text><text x="5" y="14" style="font-family: sans-serif; font-size: 14px; fill: black;" dominant-baseline="middle">database</text></g></g></g><g clip-path="url(#EeNPFC5Yys-hDDkm7-sfw)"><g transform="matrix(1, 0, 0, 1, 490, 600)" opacity="1"><g><rect width="120" height="120" rx="4" fill="white" stroke="black" stroke-width="2"/><text x="5" y="28" style="font-family: sans-serif; font-size: 10px; fill: #504758;" dominant-baseline="middle">Internet Gateway</text><clipPath id="clip-round-corners-46gqkjmj2"><rect x="0" y="0" width="64" height="64" rx="4" ry="4"/></clipPath><svg width="58" height="58" viewBox="0 0 64 64" version="1.1" xmlns="http://www.w3.org/2000/svg" xmlns:xlink="http://www.w3.org/1999/xlink" x="31" y="48" clip-path="url(#clip-round-corners-46gqkjmj2)">
    <title>Icon-Architecture/48/Arch_Amazon-Virtual-Private-Cloud_48</title>
    <g id="Icon-Architecture/48/Arch_Amazon-Virtual-Private-Cloud_48" stroke="none" stroke-width="1" fill="none" fill-rule="evenodd">
        <g id="Icon-Architecture-BG/48/Networking-Content-Delivery" fill="#8C4FFF">
            <rect id="Rectangle" x="0" y="0" width="64" height="64"/>
        </g>
        <path d="M48,33.9772867 L44.499,32.5082867 L44.499,46.8782867 C47.906,46.1472867 47.998,42.1812867 48,41.9952867 L48,33.9772867 Z M42.499,46.9232867 L42.499,32.5082867 L39,33.9772867 L39,42.0042867 C39.008,42.4662867 39.183,46.3392867 42.499,46.9232867 L42.499,46.9232867 Z M43.112,30.0822867 C43.358,29.9772867 43.638,29.9782867 43.886,30.0812867 L49.387,32.3902867 C49.759,32.5462867 50,32.9092867 50,33.3122867 L50,42.0042867 C49.978,44.4312867 48.562,49.0042867 43.37,49.0042867 C38.393,49.0042867 37.026,44.4322867 37,42.0152867 L37,33.3122867 C37,32.9092867 37.241,32.5462867 37.613,32.3902867 L43.112,30.0822867 Z M52,30.7922867 L43.492,27.0922867 L34.9998912,30.6682867 L34.9998912,41.0252867 C34.999,41.0902867 34.963,46.0092867 37.807,48.8942867 C39.187,50.2942867 41.059,51.0042867 43.37,51.0042867 C51.808,51.0042867 51.996,41.4252867 52,41.0182867 L52,30.7922867 Z M54,30.1362867 L54,41.0252867 C53.973,45.1732867 51.716,53.0042867 43.37,53.0042867 C40.498,53.0042867 38.145,52.0902867 36.373,50.2882867 C32.941,46.7972867 32.996,41.2432867 33,41.0082867 L33,30.0042867 C33,29.6022867 33.241,29.2382867 33.612,29.0822867 L43.111,25.0822867 C43.363,24.9762867 43.647,24.9782867 43.897,25.0872867 L53.398,29.2192867 C53.764,29.3782867 54,29.7382867 54,30.1362867 L54,30.1362867 Z M19,38.0042867 L30,38.0042867 L30,40.0042867 L19,40.0042867 C14.216,40.0042867 10.271,36.4832867 10.02,31.9882867 C10.002,31.8132867 10,31.5992867 10,31.3852867 C10,26.0862867 13.654,24.0382867 15.919,23.2782867 C15.902,23.0632867 15.891,22.8432867 15.891,22.6262867 C15.891,18.0392867 18.658,13.7012867 22.621,12.0792867 C27.58,10.0492867 33.235,10.9372867 36.695,14.2852867 C37.718,15.2822867 38.604,16.5962867 39.343,18.2062867 C40.299,17.4222867 41.392,17.0042867 42.523,17.0042867 C45.234,17.0042867 48.281,19.2962867 48.9,23.0622867 C51.069,23.3442867 52.936,24.6392867 53.896,26.5822867 L52.104,27.4692867 C51.34,25.9252867 49.806,25.0042867 48,25.0042867 C47.471,25.0042867 47.033,24.5912867 47.002,24.0632867 C46.807,20.7622867 44.275,19.0042867 42.523,19.0042867 C41.55,19.0042867 40.582,19.5742867 39.797,20.6082867 C39.575,20.8992867 39.215,21.0482867 38.852,20.9932867 C38.49,20.9382867 38.187,20.6912867 38.062,20.3482867 C37.327,18.3462867 36.398,16.7892867 35.302,15.7202867 C32.406,12.9172867 27.615,12.1962867 23.379,13.9302867 C19.775,15.4052867 17.891,19.4212867 17.891,22.6262867 C17.891,23.0262867 17.947,23.5032867 17.993,23.8862867 C18.053,24.3862867 17.73,24.8532867 17.24,24.9752867 C15.283,25.4592867 12,26.9372867 12,31.3852867 C12,31.5352867 11.998,31.6852867 12.013,31.8362867 C12.209,35.3122867 15.276,38.0042867 19,38.0042867 L19,38.0042867 Z" id="Amazon-Virtual-Private-Cloud_Icon_48_Squid" fill="#FFFFFF"/>
    </g>
</svg><rect x="90.6" y="5" width="24.4" height="16" rx="8" ry="8" fill="#37bb65"/><text x="102.8" y="14" style="font-family: sans-serif; font-size: 12px; fill: black; text-anchor: middle; dominant-baseline: middle;">23</text><text x="5" y="14" style="font-family: sans-serif; font-size: 14px; fill: black;" dominant-baseline="middle">this</text></g></g></g><g clip-path="url(#enZgkQjCWoup_1Hy_iAV5)"><g transform="matrix(1, 0, 0, 1, 0, 0)" opacity="1"><g><defs><mask id="shape_module.vpc_example_complete.module.vpc.aws_internet_gateway.this-module.vpc_example_complete.module.vpc.aws_internet_gateway.this:1712759500636_clip"><rect x="450" y="560" width="200" height="200" fill="white"/><path d="M NaN NaN L 550 660 L NaN NaN" fill="none" stroke="none"/></mask></defs><g mask="url(#shape_module.vpc_example_complete.module.vpc.aws_internet_gateway.this-module.vpc_example_complete.module.vpc.aws_internet_gateway.this:1712759500636_clip)"><rect x="-100" y="-100" width="200" height="200" fill="transparent" stroke="none"/><path d="M550,660L550,660" fill="none" stroke="#1d1d1d" stroke-width="2" stroke-dasharray="none" stroke-dashoffset="none"/></g><path d="M NaN NaN L 550 660 L NaN NaN" fill="none" stroke="#1d1d1d" stroke-width="2"/></g></g></g><g clip-path="url(#THQ0lalNslgwt-EYdwqP1)"><g transform="matrix(1, 0, 0, 1, 65, 360)" opacity="1"><g><rect width="120" height="120" rx="4" fill="white" stroke="black" stroke-width="2"/><text x="5" y="28" style="font-family: sans-serif; font-size: 10px; fill: #504758;" dominant-baseline="middle">Nat Gateway</text><clipPath id="clip-round-corners-8daridtl4"><rect x="0" y="0" width="64" height="64" rx="4" ry="4"/></clipPath><svg width="58" height="58" viewBox="0 0 64 64" version="1.1" xmlns="http://www.w3.org/2000/svg" xmlns:xlink="http://www.w3.org/1999/xlink" x="31" y="48" clip-path="url(#clip-round-corners-8daridtl4)">
    <title>Icon-Architecture/48/Arch_Amazon-Virtual-Private-Cloud_48</title>
    <g id="Icon-Architecture/48/Arch_Amazon-Virtual-Private-Cloud_48" stroke="none" stroke-width="1" fill="none" fill-rule="evenodd">
        <g id="Icon-Architecture-BG/48/Networking-Content-Delivery" fill="#8C4FFF">
            <rect id="Rectangle" x="0" y="0" width="64" height="64"/>
        </g>
        <path d="M48,33.9772867 L44.499,32.5082867 L44.499,46.8782867 C47.906,46.1472867 47.998,42.1812867 48,41.9952867 L48,33.9772867 Z M42.499,46.9232867 L42.499,32.5082867 L39,33.9772867 L39,42.0042867 C39.008,42.4662867 39.183,46.3392867 42.499,46.9232867 L42.499,46.9232867 Z M43.112,30.0822867 C43.358,29.9772867 43.638,29.9782867 43.886,30.0812867 L49.387,32.3902867 C49.759,32.5462867 50,32.9092867 50,33.3122867 L50,42.0042867 C49.978,44.4312867 48.562,49.0042867 43.37,49.0042867 C38.393,49.0042867 37.026,44.4322867 37,42.0152867 L37,33.3122867 C37,32.9092867 37.241,32.5462867 37.613,32.3902867 L43.112,30.0822867 Z M52,30.7922867 L43.492,27.0922867 L34.9998912,30.6682867 L34.9998912,41.0252867 C34.999,41.0902867 34.963,46.0092867 37.807,48.8942867 C39.187,50.2942867 41.059,51.0042867 43.37,51.0042867 C51.808,51.0042867 51.996,41.4252867 52,41.0182867 L52,30.7922867 Z M54,30.1362867 L54,41.0252867 C53.973,45.1732867 51.716,53.0042867 43.37,53.0042867 C40.498,53.0042867 38.145,52.0902867 36.373,50.2882867 C32.941,46.7972867 32.996,41.2432867 33,41.0082867 L33,30.0042867 C33,29.6022867 33.241,29.2382867 33.612,29.0822867 L43.111,25.0822867 C43.363,24.9762867 43.647,24.9782867 43.897,25.0872867 L53.398,29.2192867 C53.764,29.3782867 54,29.7382867 54,30.1362867 L54,30.1362867 Z M19,38.0042867 L30,38.0042867 L30,40.0042867 L19,40.0042867 C14.216,40.0042867 10.271,36.4832867 10.02,31.9882867 C10.002,31.8132867 10,31.5992867 10,31.3852867 C10,26.0862867 13.654,24.0382867 15.919,23.2782867 C15.902,23.0632867 15.891,22.8432867 15.891,22.6262867 C15.891,18.0392867 18.658,13.7012867 22.621,12.0792867 C27.58,10.0492867 33.235,10.9372867 36.695,14.2852867 C37.718,15.2822867 38.604,16.5962867 39.343,18.2062867 C40.299,17.4222867 41.392,17.0042867 42.523,17.0042867 C45.234,17.0042867 48.281,19.2962867 48.9,23.0622867 C51.069,23.3442867 52.936,24.6392867 53.896,26.5822867 L52.104,27.4692867 C51.34,25.9252867 49.806,25.0042867 48,25.0042867 C47.471,25.0042867 47.033,24.5912867 47.002,24.0632867 C46.807,20.7622867 44.275,19.0042867 42.523,19.0042867 C41.55,19.0042867 40.582,19.5742867 39.797,20.6082867 C39.575,20.8992867 39.215,21.0482867 38.852,20.9932867 C38.49,20.9382867 38.187,20.6912867 38.062,20.3482867 C37.327,18.3462867 36.398,16.7892867 35.302,15.7202867 C32.406,12.9172867 27.615,12.1962867 23.379,13.9302867 C19.775,15.4052867 17.891,19.4212867 17.891,22.6262867 C17.891,23.0262867 17.947,23.5032867 17.993,23.8862867 C18.053,24.3862867 17.73,24.8532867 17.24,24.9752867 C15.283,25.4592867 12,26.9372867 12,31.3852867 C12,31.5352867 11.998,31.6852867 12.013,31.8362867 C12.209,35.3122867 15.276,38.0042867 19,38.0042867 L19,38.0042867 Z" id="Amazon-Virtual-Private-Cloud_Icon_48_Squid" fill="#FFFFFF"/>
    </g>
</svg><rect x="91" y="5" width="24" height="16" rx="8" ry="8" fill="#37bb65"/><text x="103" y="14" style="font-family: sans-serif; font-size: 12px; fill: black; text-anchor: middle; dominant-baseline: middle;">1</text><text x="5" y="14" style="font-family: sans-serif; font-size: 14px; fill: black;" dominant-baseline="middle">this</text></g></g></g><g clip-path="url(#DSlzoN19hVTPLiJf3GhnO)"><g transform="matrix(1, 0, 0, 1, 0, 0)" opacity="1"><g><defs><mask id="shape_module.vpc_example_complete.module.vpc.aws_nat_gateway.this-module.vpc_example_complete.module.vpc.aws_internet_gateway.this:1712759500636_clip"><rect x="85" y="353.88235294117646" width="495.42171076211804" height="366.8263778421373" fill="white"/><path d="M 477.3723014891839 615.5414197721452 L 480.42171076211804 620.7087307833137 L 474.421983520724 620.7659411746263" fill="none" stroke="none"/></mask></defs><g mask="url(#shape_module.vpc_example_complete.module.vpc.aws_nat_gateway.this-module.vpc_example_complete.module.vpc.aws_internet_gateway.this:1712759500636_clip)"><rect x="-100" y="-100" width="495.42171076211804" height="366.8263778421373" fill="transparent" stroke="none"/><path d="M185,453.88235294117646L480.42171076211804,620.7087307833137" fill="none" stroke="#1d1d1d" stroke-width="2" stroke-dasharray="none" stroke-dashoffset="none"/></g><path d="M 477.3723014891839 615.5414197721452 L 480.42171076211804 620.7087307833137 L 474.421983520724 620.7659411746263" fill="none" stroke="#1d1d1d" stroke-width="2"/></g></g></g><g clip-path="url(#Fyp0ZWkQ-lV_b6ozjB9dr)"><g transform="matrix(1, 0, 0, 1, 235, 360)" opacity="1"><g><rect width="120" height="120" rx="4" fill="white" stroke="black" stroke-width="2"/><text x="5" y="28" style="font-family: sans-serif; font-size: 10px; fill: #504758;" dominant-baseline="middle">Subnet</text><clipPath id="clip-round-corners-jl6tqbmkd"><rect x="0" y="0" width="64" height="64" rx="4" ry="4"/></clipPath><svg width="58" height="58" viewBox="0 0 64 64" version="1.1" xmlns="http://www.w3.org/2000/svg" xmlns:xlink="http://www.w3.org/1999/xlink" x="31" y="48" clip-path="url(#clip-round-corners-jl6tqbmkd)">
    <title>Icon-Architecture/48/Arch_Amazon-Virtual-Private-Cloud_48</title>
    <g id="Icon-Architecture/48/Arch_Amazon-Virtual-Private-Cloud_48" stroke="none" stroke-width="1" fill="none" fill-rule="evenodd">
        <g id="Icon-Architecture-BG/48/Networking-Content-Delivery" fill="#8C4FFF">
            <rect id="Rectangle" x="0" y="0" width="64" height="64"/>
        </g>
        <path d="M48,33.9772867 L44.499,32.5082867 L44.499,46.8782867 C47.906,46.1472867 47.998,42.1812867 48,41.9952867 L48,33.9772867 Z M42.499,46.9232867 L42.499,32.5082867 L39,33.9772867 L39,42.0042867 C39.008,42.4662867 39.183,46.3392867 42.499,46.9232867 L42.499,46.9232867 Z M43.112,30.0822867 C43.358,29.9772867 43.638,29.9782867 43.886,30.0812867 L49.387,32.3902867 C49.759,32.5462867 50,32.9092867 50,33.3122867 L50,42.0042867 C49.978,44.4312867 48.562,49.0042867 43.37,49.0042867 C38.393,49.0042867 37.026,44.4322867 37,42.0152867 L37,33.3122867 C37,32.9092867 37.241,32.5462867 37.613,32.3902867 L43.112,30.0822867 Z M52,30.7922867 L43.492,27.0922867 L34.9998912,30.6682867 L34.9998912,41.0252867 C34.999,41.0902867 34.963,46.0092867 37.807,48.8942867 C39.187,50.2942867 41.059,51.0042867 43.37,51.0042867 C51.808,51.0042867 51.996,41.4252867 52,41.0182867 L52,30.7922867 Z M54,30.1362867 L54,41.0252867 C53.973,45.1732867 51.716,53.0042867 43.37,53.0042867 C40.498,53.0042867 38.145,52.0902867 36.373,50.2882867 C32.941,46.7972867 32.996,41.2432867 33,41.0082867 L33,30.0042867 C33,29.6022867 33.241,29.2382867 33.612,29.0822867 L43.111,25.0822867 C43.363,24.9762867 43.647,24.9782867 43.897,25.0872867 L53.398,29.2192867 C53.764,29.3782867 54,29.7382867 54,30.1362867 L54,30.1362867 Z M19,38.0042867 L30,38.0042867 L30,40.0042867 L19,40.0042867 C14.216,40.0042867 10.271,36.4832867 10.02,31.9882867 C10.002,31.8132867 10,31.5992867 10,31.3852867 C10,26.0862867 13.654,24.0382867 15.919,23.2782867 C15.902,23.0632867 15.891,22.8432867 15.891,22.6262867 C15.891,18.0392867 18.658,13.7012867 22.621,12.0792867 C27.58,10.0492867 33.235,10.9372867 36.695,14.2852867 C37.718,15.2822867 38.604,16.5962867 39.343,18.2062867 C40.299,17.4222867 41.392,17.0042867 42.523,17.0042867 C45.234,17.0042867 48.281,19.2962867 48.9,23.0622867 C51.069,23.3442867 52.936,24.6392867 53.896,26.5822867 L52.104,27.4692867 C51.34,25.9252867 49.806,25.0042867 48,25.0042867 C47.471,25.0042867 47.033,24.5912867 47.002,24.0632867 C46.807,20.7622867 44.275,19.0042867 42.523,19.0042867 C41.55,19.0042867 40.582,19.5742867 39.797,20.6082867 C39.575,20.8992867 39.215,21.0482867 38.852,20.9932867 C38.49,20.9382867 38.187,20.6912867 38.062,20.3482867 C37.327,18.3462867 36.398,16.7892867 35.302,15.7202867 C32.406,12.9172867 27.615,12.1962867 23.379,13.9302867 C19.775,15.4052867 17.891,19.4212867 17.891,22.6262867 C17.891,23.0262867 17.947,23.5032867 17.993,23.8862867 C18.053,24.3862867 17.73,24.8532867 17.24,24.9752867 C15.283,25.4592867 12,26.9372867 12,31.3852867 C12,31.5352867 11.998,31.6852867 12.013,31.8362867 C12.209,35.3122867 15.276,38.0042867 19,38.0042867 L19,38.0042867 Z" id="Amazon-Virtual-Private-Cloud_Icon_48_Squid" fill="#FFFFFF"/>
    </g>
</svg><rect x="91" y="5" width="24" height="16" rx="8" ry="8" fill="#37bb65"/><text x="103" y="14" style="font-family: sans-serif; font-size: 12px; fill: black; text-anchor: middle; dominant-baseline: middle;">3</text><text x="5" y="14" style="font-family: sans-serif; font-size: 14px; fill: black;" dominant-baseline="middle">database</text></g></g></g><g clip-path="url(#yd_GjkpCrHZ1LXkjn4W7r)"><g transform="matrix(1, 0, 0, 1, 0, 0)" opacity="1"><g><defs><mask id="shape_module.vpc_example_complete.module.vpc.aws_subnet.database-module.vpc_example_complete.module.vpc.aws_internet_gateway.this:1712759500636_clip"><rect x="255" y="376.47058823529414" width="326.98980008037915" height="319.51981184035685" fill="white"/><path d="M 480.26205602114845 590.2445406564002 L 481.98980008037915 595.990400075651 L 476.1498678271185 594.613740612557" fill="none" stroke="none"/></mask></defs><g mask="url(#shape_module.vpc_example_complete.module.vpc.aws_subnet.database-module.vpc_example_complete.module.vpc.aws_internet_gateway.this:1712759500636_clip)"><rect x="-100" y="-100" width="326.98980008037915" height="319.51981184035685" fill="transparent" stroke="none"/><path d="M355,476.47058823529414L481.98980008037915,595.990400075651" fill="none" stroke="#1d1d1d" stroke-width="2" stroke-dasharray="none" stroke-dashoffset="none"/></g><path d="M 480.26205602114845 590.2445406564002 L 481.98980008037915 595.990400075651 L 476.1498678271185 594.613740612557" fill="none" stroke="#1d1d1d" stroke-width="2"/></g></g></g><g clip-path="url(#03t9h9j0SvghUEbEtR3qc)"><g transform="matrix(1, 0, 0, 1, 0, 0)" opacity="1"><g><defs><mask id="shape_module.vpc_example_complete.module.vpc.aws_subnet.database-module.vpc_example_complete.module.vpc.aws_db_subnet_group.database:1712759500636_clip"><rect x="66.6" y="380" width="283.4" height="311.20000000000005" fill="white"/><path d="M 172.11769145362393 588.8430780618348 L 166.6 591.2 L 167.31769145362398 585.2430780618348" fill="none" stroke="none"/></mask></defs><g mask="url(#shape_module.vpc_example_complete.module.vpc.aws_subnet.database-module.vpc_example_complete.module.vpc.aws_db_subnet_group.database:1712759500636_clip)"><rect x="-100" y="-100" width="283.4" height="311.20000000000005" fill="transparent" stroke="none"/><path d="M250,480L166.6,591.2" fill="none" stroke="#1d1d1d" stroke-width="2" stroke-dasharray="none" stroke-dashoffset="none"/></g><path d="M 172.11769145362393 588.8430780618348 L 166.6 591.2 L 167.31769145362398 585.2430780618348" fill="none" stroke="#1d1d1d" stroke-width="2"/></g></g></g><g clip-path="url(#0pVIIURYaNWXOJScEb2Ik)"><g transform="matrix(1, 0, 0, 1, 405, 360)" opacity="1"><g><rect width="120" height="120" rx="4" fill="white" stroke="black" stroke-width="2"/><text x="5" y="28" style="font-family: sans-serif; font-size: 10px; fill: #504758;" dominant-baseline="middle">Subnet</text><clipPath id="clip-round-corners-v7ofec15g"><rect x="0" y="0" width="64" height="64" rx="4" ry="4"/></clipPath><svg width="58" height="58" viewBox="0 0 64 64" version="1.1" xmlns="http://www.w3.org/2000/svg" xmlns:xlink="http://www.w3.org/1999/xlink" x="31" y="48" clip-path="url(#clip-round-corners-v7ofec15g)">
    <title>Icon-Architecture/48/Arch_Amazon-Virtual-Private-Cloud_48</title>
    <g id="Icon-Architecture/48/Arch_Amazon-Virtual-Private-Cloud_48" stroke="none" stroke-width="1" fill="none" fill-rule="evenodd">
        <g id="Icon-Architecture-BG/48/Networking-Content-Delivery" fill="#8C4FFF">
            <rect id="Rectangle" x="0" y="0" width="64" height="64"/>
        </g>
        <path d="M48,33.9772867 L44.499,32.5082867 L44.499,46.8782867 C47.906,46.1472867 47.998,42.1812867 48,41.9952867 L48,33.9772867 Z M42.499,46.9232867 L42.499,32.5082867 L39,33.9772867 L39,42.0042867 C39.008,42.4662867 39.183,46.3392867 42.499,46.9232867 L42.499,46.9232867 Z M43.112,30.0822867 C43.358,29.9772867 43.638,29.9782867 43.886,30.0812867 L49.387,32.3902867 C49.759,32.5462867 50,32.9092867 50,33.3122867 L50,42.0042867 C49.978,44.4312867 48.562,49.0042867 43.37,49.0042867 C38.393,49.0042867 37.026,44.4322867 37,42.0152867 L37,33.3122867 C37,32.9092867 37.241,32.5462867 37.613,32.3902867 L43.112,30.0822867 Z M52,30.7922867 L43.492,27.0922867 L34.9998912,30.6682867 L34.9998912,41.0252867 C34.999,41.0902867 34.963,46.0092867 37.807,48.8942867 C39.187,50.2942867 41.059,51.0042867 43.37,51.0042867 C51.808,51.0042867 51.996,41.4252867 52,41.0182867 L52,30.7922867 Z M54,30.1362867 L54,41.0252867 C53.973,45.1732867 51.716,53.0042867 43.37,53.0042867 C40.498,53.0042867 38.145,52.0902867 36.373,50.2882867 C32.941,46.7972867 32.996,41.2432867 33,41.0082867 L33,30.0042867 C33,29.6022867 33.241,29.2382867 33.612,29.0822867 L43.111,25.0822867 C43.363,24.9762867 43.647,24.9782867 43.897,25.0872867 L53.398,29.2192867 C53.764,29.3782867 54,29.7382867 54,30.1362867 L54,30.1362867 Z M19,38.0042867 L30,38.0042867 L30,40.0042867 L19,40.0042867 C14.216,40.0042867 10.271,36.4832867 10.02,31.9882867 C10.002,31.8132867 10,31.5992867 10,31.3852867 C10,26.0862867 13.654,24.0382867 15.919,23.2782867 C15.902,23.0632867 15.891,22.8432867 15.891,22.6262867 C15.891,18.0392867 18.658,13.7012867 22.621,12.0792867 C27.58,10.0492867 33.235,10.9372867 36.695,14.2852867 C37.718,15.2822867 38.604,16.5962867 39.343,18.2062867 C40.299,17.4222867 41.392,17.0042867 42.523,17.0042867 C45.234,17.0042867 48.281,19.2962867 48.9,23.0622867 C51.069,23.3442867 52.936,24.6392867 53.896,26.5822867 L52.104,27.4692867 C51.34,25.9252867 49.806,25.0042867 48,25.0042867 C47.471,25.0042867 47.033,24.5912867 47.002,24.0632867 C46.807,20.7622867 44.275,19.0042867 42.523,19.0042867 C41.55,19.0042867 40.582,19.5742867 39.797,20.6082867 C39.575,20.8992867 39.215,21.0482867 38.852,20.9932867 C38.49,20.9382867 38.187,20.6912867 38.062,20.3482867 C37.327,18.3462867 36.398,16.7892867 35.302,15.7202867 C32.406,12.9172867 27.615,12.1962867 23.379,13.9302867 C19.775,15.4052867 17.891,19.4212867 17.891,22.6262867 C17.891,23.0262867 17.947,23.5032867 17.993,23.8862867 C18.053,24.3862867 17.73,24.8532867 17.24,24.9752867 C15.283,25.4592867 12,26.9372867 12,31.3852867 C12,31.5352867 11.998,31.6852867 12.013,31.8362867 C12.209,35.3122867 15.276,38.0042867 19,38.0042867 L19,38.0042867 Z" id="Amazon-Virtual-Private-Cloud_Icon_48_Squid" fill="#FFFFFF"/>
    </g>
</svg><rect x="91" y="5" width="24" height="16" rx="8" ry="8" fill="#37bb65"/><text x="103" y="14" style="font-family: sans-serif; font-size: 12px; fill: black; text-anchor: middle; dominant-baseline: middle;">3</text><text x="5" y="14" style="font-family: sans-serif; font-size: 14px; fill: black;" dominant-baseline="middle">elasticache</text></g></g></g><g clip-path="url(#249OccOs8iGad7Rgaymry)"><g transform="matrix(1, 0, 0, 1, 0, 0)" opacity="1"><g><defs><mask id="shape_module.vpc_example_complete.module.vpc.aws_subnet.elasticache-module.vpc_example_complete.module.vpc.aws_internet_gateway.this:1712759500636_clip"><rect x="386.25" y="380" width="238.8276814353095" height="309.6311005232267" fill="white"/><path d="M 526.1708424738051 583.7315243567622 L 525.0776814353095 589.6311005232267 L 520.5150791228378 585.7346072102298" fill="none" stroke="none"/></mask></defs><g mask="url(#shape_module.vpc_example_complete.module.vpc.aws_subnet.elasticache-module.vpc_example_complete.module.vpc.aws_internet_gateway.this:1712759500636_clip)"><rect x="-100" y="-100" width="238.8276814353095" height="309.6311005232267" fill="transparent" stroke="none"/><path d="M486.25,480L525.0776814353095,589.6311005232267" fill="none" stroke="#1d1d1d" stroke-width="2" stroke-dasharray="none" stroke-dashoffset="none"/></g><path d="M 526.1708424738051 583.7315243567622 L 525.0776814353095 589.6311005232267 L 520.5150791228378 585.7346072102298" fill="none" stroke="#1d1d1d" stroke-width="2"/></g></g></g><g clip-path="url(#v0d5-xOSKD8Oo67NcYyHI)"><g transform="matrix(1, 0, 0, 1, 690, 600)" opacity="1"><g><rect width="120" height="120" rx="4" fill="white" stroke="black" stroke-width="2"/><text x="5" y="28" style="font-family: sans-serif; font-size: 10px; fill: #504758;" dominant-baseline="middle">Subnet</text><clipPath id="clip-round-corners-virhuxe77"><rect x="0" y="0" width="64" height="64" rx="4" ry="4"/></clipPath><svg width="58" height="58" viewBox="0 0 64 64" version="1.1" xmlns="http://www.w3.org/2000/svg" xmlns:xlink="http://www.w3.org/1999/xlink" x="31" y="48" clip-path="url(#clip-round-corners-virhuxe77)">
    <title>Icon-Architecture/48/Arch_Amazon-Virtual-Private-Cloud_48</title>
    <g id="Icon-Architecture/48/Arch_Amazon-Virtual-Private-Cloud_48" stroke="none" stroke-width="1" fill="none" fill-rule="evenodd">
        <g id="Icon-Architecture-BG/48/Networking-Content-Delivery" fill="#8C4FFF">
            <rect id="Rectangle" x="0" y="0" width="64" height="64"/>
        </g>
        <path d="M48,33.9772867 L44.499,32.5082867 L44.499,46.8782867 C47.906,46.1472867 47.998,42.1812867 48,41.9952867 L48,33.9772867 Z M42.499,46.9232867 L42.499,32.5082867 L39,33.9772867 L39,42.0042867 C39.008,42.4662867 39.183,46.3392867 42.499,46.9232867 L42.499,46.9232867 Z M43.112,30.0822867 C43.358,29.9772867 43.638,29.9782867 43.886,30.0812867 L49.387,32.3902867 C49.759,32.5462867 50,32.9092867 50,33.3122867 L50,42.0042867 C49.978,44.4312867 48.562,49.0042867 43.37,49.0042867 C38.393,49.0042867 37.026,44.4322867 37,42.0152867 L37,33.3122867 C37,32.9092867 37.241,32.5462867 37.613,32.3902867 L43.112,30.0822867 Z M52,30.7922867 L43.492,27.0922867 L34.9998912,30.6682867 L34.9998912,41.0252867 C34.999,41.0902867 34.963,46.0092867 37.807,48.8942867 C39.187,50.2942867 41.059,51.0042867 43.37,51.0042867 C51.808,51.0042867 51.996,41.4252867 52,41.0182867 L52,30.7922867 Z M54,30.1362867 L54,41.0252867 C53.973,45.1732867 51.716,53.0042867 43.37,53.0042867 C40.498,53.0042867 38.145,52.0902867 36.373,50.2882867 C32.941,46.7972867 32.996,41.2432867 33,41.0082867 L33,30.0042867 C33,29.6022867 33.241,29.2382867 33.612,29.0822867 L43.111,25.0822867 C43.363,24.9762867 43.647,24.9782867 43.897,25.0872867 L53.398,29.2192867 C53.764,29.3782867 54,29.7382867 54,30.1362867 L54,30.1362867 Z M19,38.0042867 L30,38.0042867 L30,40.0042867 L19,40.0042867 C14.216,40.0042867 10.271,36.4832867 10.02,31.9882867 C10.002,31.8132867 10,31.5992867 10,31.3852867 C10,26.0862867 13.654,24.0382867 15.919,23.2782867 C15.902,23.0632867 15.891,22.8432867 15.891,22.6262867 C15.891,18.0392867 18.658,13.7012867 22.621,12.0792867 C27.58,10.0492867 33.235,10.9372867 36.695,14.2852867 C37.718,15.2822867 38.604,16.5962867 39.343,18.2062867 C40.299,17.4222867 41.392,17.0042867 42.523,17.0042867 C45.234,17.0042867 48.281,19.2962867 48.9,23.0622867 C51.069,23.3442867 52.936,24.6392867 53.896,26.5822867 L52.104,27.4692867 C51.34,25.9252867 49.806,25.0042867 48,25.0042867 C47.471,25.0042867 47.033,24.5912867 47.002,24.0632867 C46.807,20.7622867 44.275,19.0042867 42.523,19.0042867 C41.55,19.0042867 40.582,19.5742867 39.797,20.6082867 C39.575,20.8992867 39.215,21.0482867 38.852,20.9932867 C38.49,20.9382867 38.187,20.6912867 38.062,20.3482867 C37.327,18.3462867 36.398,16.7892867 35.302,15.7202867 C32.406,12.9172867 27.615,12.1962867 23.379,13.9302867 C19.775,15.4052867 17.891,19.4212867 17.891,22.6262867 C17.891,23.0262867 17.947,23.5032867 17.993,23.8862867 C18.053,24.3862867 17.73,24.8532867 17.24,24.9752867 C15.283,25.4592867 12,26.9372867 12,31.3852867 C12,31.5352867 11.998,31.6852867 12.013,31.8362867 C12.209,35.3122867 15.276,38.0042867 19,38.0042867 L19,38.0042867 Z" id="Amazon-Virtual-Private-Cloud_Icon_48_Squid" fill="#FFFFFF"/>
    </g>
</svg><rect x="91" y="5" width="24" height="16" rx="8" ry="8" fill="#37bb65"/><text x="103" y="14" style="font-family: sans-serif; font-size: 12px; fill: black; text-anchor: middle; dominant-baseline: middle;">7</text><text x="5" y="14" style="font-family: sans-serif; font-size: 14px; fill: black;" dominant-baseline="middle">intra</text></g></g></g><g clip-path="url(#rBPGqBQ8gwbxNEDRDZ7k7)"><g transform="matrix(1, 0, 0, 1, 0, 0)" opacity="1"><g><defs><mask id="shape_module.vpc_example_complete.module.vpc.aws_subnet.intra-module.vpc_example_complete.module.vpc.aws_subnet.intra:1712759500636_clip"><rect x="650" y="560" width="200" height="200" fill="white"/><path d="M NaN NaN L 750 660 L NaN NaN" fill="none" stroke="none"/></mask></defs><g mask="url(#shape_module.vpc_example_complete.module.vpc.aws_subnet.intra-module.vpc_example_complete.module.vpc.aws_subnet.intra:1712759500636_clip)"><rect x="-100" y="-100" width="200" height="200" fill="transparent" stroke="none"/><path d="M750,660L750,660" fill="none" stroke="#1d1d1d" stroke-width="2" stroke-dasharray="none" stroke-dashoffset="none"/></g><path d="M NaN NaN L 750 660 L NaN NaN" fill="none" stroke="#1d1d1d" stroke-width="2"/></g></g></g><g clip-path="url(#ANrFa4f3CJzQFd09xfO86)"><g transform="matrix(1, 0, 0, 1, 610, 360)" opacity="1"><g><rect width="120" height="120" rx="4" fill="white" stroke="black" stroke-width="2"/><text x="5" y="28" style="font-family: sans-serif; font-size: 10px; fill: #504758;" dominant-baseline="middle">Subnet</text><clipPath id="clip-round-corners-t7gmqom1g"><rect x="0" y="0" width="64" height="64" rx="4" ry="4"/></clipPath><svg width="58" height="58" viewBox="0 0 64 64" version="1.1" xmlns="http://www.w3.org/2000/svg" xmlns:xlink="http://www.w3.org/1999/xlink" x="31" y="48" clip-path="url(#clip-round-corners-t7gmqom1g)">
    <title>Icon-Architecture/48/Arch_Amazon-Virtual-Private-Cloud_48</title>
    <g id="Icon-Architecture/48/Arch_Amazon-Virtual-Private-Cloud_48" stroke="none" stroke-width="1" fill="none" fill-rule="evenodd">
        <g id="Icon-Architecture-BG/48/Networking-Content-Delivery" fill="#8C4FFF">
            <rect id="Rectangle" x="0" y="0" width="64" height="64"/>
        </g>
        <path d="M48,33.9772867 L44.499,32.5082867 L44.499,46.8782867 C47.906,46.1472867 47.998,42.1812867 48,41.9952867 L48,33.9772867 Z M42.499,46.9232867 L42.499,32.5082867 L39,33.9772867 L39,42.0042867 C39.008,42.4662867 39.183,46.3392867 42.499,46.9232867 L42.499,46.9232867 Z M43.112,30.0822867 C43.358,29.9772867 43.638,29.9782867 43.886,30.0812867 L49.387,32.3902867 C49.759,32.5462867 50,32.9092867 50,33.3122867 L50,42.0042867 C49.978,44.4312867 48.562,49.0042867 43.37,49.0042867 C38.393,49.0042867 37.026,44.4322867 37,42.0152867 L37,33.3122867 C37,32.9092867 37.241,32.5462867 37.613,32.3902867 L43.112,30.0822867 Z M52,30.7922867 L43.492,27.0922867 L34.9998912,30.6682867 L34.9998912,41.0252867 C34.999,41.0902867 34.963,46.0092867 37.807,48.8942867 C39.187,50.2942867 41.059,51.0042867 43.37,51.0042867 C51.808,51.0042867 51.996,41.4252867 52,41.0182867 L52,30.7922867 Z M54,30.1362867 L54,41.0252867 C53.973,45.1732867 51.716,53.0042867 43.37,53.0042867 C40.498,53.0042867 38.145,52.0902867 36.373,50.2882867 C32.941,46.7972867 32.996,41.2432867 33,41.0082867 L33,30.0042867 C33,29.6022867 33.241,29.2382867 33.612,29.0822867 L43.111,25.0822867 C43.363,24.9762867 43.647,24.9782867 43.897,25.0872867 L53.398,29.2192867 C53.764,29.3782867 54,29.7382867 54,30.1362867 L54,30.1362867 Z M19,38.0042867 L30,38.0042867 L30,40.0042867 L19,40.0042867 C14.216,40.0042867 10.271,36.4832867 10.02,31.9882867 C10.002,31.8132867 10,31.5992867 10,31.3852867 C10,26.0862867 13.654,24.0382867 15.919,23.2782867 C15.902,23.0632867 15.891,22.8432867 15.891,22.6262867 C15.891,18.0392867 18.658,13.7012867 22.621,12.0792867 C27.58,10.0492867 33.235,10.9372867 36.695,14.2852867 C37.718,15.2822867 38.604,16.5962867 39.343,18.2062867 C40.299,17.4222867 41.392,17.0042867 42.523,17.0042867 C45.234,17.0042867 48.281,19.2962867 48.9,23.0622867 C51.069,23.3442867 52.936,24.6392867 53.896,26.5822867 L52.104,27.4692867 C51.34,25.9252867 49.806,25.0042867 48,25.0042867 C47.471,25.0042867 47.033,24.5912867 47.002,24.0632867 C46.807,20.7622867 44.275,19.0042867 42.523,19.0042867 C41.55,19.0042867 40.582,19.5742867 39.797,20.6082867 C39.575,20.8992867 39.215,21.0482867 38.852,20.9932867 C38.49,20.9382867 38.187,20.6912867 38.062,20.3482867 C37.327,18.3462867 36.398,16.7892867 35.302,15.7202867 C32.406,12.9172867 27.615,12.1962867 23.379,13.9302867 C19.775,15.4052867 17.891,19.4212867 17.891,22.6262867 C17.891,23.0262867 17.947,23.5032867 17.993,23.8862867 C18.053,24.3862867 17.73,24.8532867 17.24,24.9752867 C15.283,25.4592867 12,26.9372867 12,31.3852867 C12,31.5352867 11.998,31.6852867 12.013,31.8362867 C12.209,35.3122867 15.276,38.0042867 19,38.0042867 L19,38.0042867 Z" id="Amazon-Virtual-Private-Cloud_Icon_48_Squid" fill="#FFFFFF"/>
    </g>
</svg><rect x="91" y="5" width="24" height="16" rx="8" ry="8" fill="#37bb65"/><text x="103" y="14" style="font-family: sans-serif; font-size: 12px; fill: black; text-anchor: middle; dominant-baseline: middle;">3</text><text x="5" y="14" style="font-family: sans-serif; font-size: 14px; fill: black;" dominant-baseline="middle">private</text></g></g></g><g clip-path="url(#VuoXsamrq8HLANcMyTFDc)"><g transform="matrix(1, 0, 0, 1, 0, 0)" opacity="1"><g><defs><mask id="shape_module.vpc_example_complete.module.vpc.aws_subnet.private-module.vpc_example_complete.module.vpc.aws_internet_gateway.this:1712759500636_clip"><rect x="484.91934955049953" y="380" width="255.08065044950047" height="310.16130089900093" fill="white"/><path d="M 589.9264211312237 586.8553616700518 L 584.9193495504995 590.1613008990009 L 584.5598579852242 584.1720800970521" fill="none" stroke="none"/></mask></defs><g mask="url(#shape_module.vpc_example_complete.module.vpc.aws_subnet.private-module.vpc_example_complete.module.vpc.aws_internet_gateway.this:1712759500636_clip)"><rect x="-100" y="-100" width="255.08065044950047" height="310.16130089900093" fill="transparent" stroke="none"/><path d="M640,480L584.9193495504995,590.1613008990009" fill="none" stroke="#1d1d1d" stroke-width="2" stroke-dasharray="none" stroke-dashoffset="none"/></g><path d="M 589.9264211312237 586.8553616700518 L 584.9193495504995 590.1613008990009 L 584.5598579852242 584.1720800970521" fill="none" stroke="#1d1d1d" stroke-width="2"/></g></g></g><g clip-path="url(#scdCQH0qW6N93j88yxl_1)"><g transform="matrix(1, 0, 0, 1, 357.5, 120)" opacity="1"><g><rect width="120" height="120" rx="4" fill="white" stroke="black" stroke-width="2"/><text x="5" y="28" style="font-family: sans-serif; font-size: 10px; fill: #504758;" dominant-baseline="middle">Subnet</text><clipPath id="clip-round-corners-if3llvgba"><rect x="0" y="0" width="64" height="64" rx="4" ry="4"/></clipPath><svg width="58" height="58" viewBox="0 0 64 64" version="1.1" xmlns="http://www.w3.org/2000/svg" xmlns:xlink="http://www.w3.org/1999/xlink" x="31" y="48" clip-path="url(#clip-round-corners-if3llvgba)">
    <title>Icon-Architecture/48/Arch_Amazon-Virtual-Private-Cloud_48</title>
    <g id="Icon-Architecture/48/Arch_Amazon-Virtual-Private-Cloud_48" stroke="none" stroke-width="1" fill="none" fill-rule="evenodd">
        <g id="Icon-Architecture-BG/48/Networking-Content-Delivery" fill="#8C4FFF">
            <rect id="Rectangle" x="0" y="0" width="64" height="64"/>
        </g>
        <path d="M48,33.9772867 L44.499,32.5082867 L44.499,46.8782867 C47.906,46.1472867 47.998,42.1812867 48,41.9952867 L48,33.9772867 Z M42.499,46.9232867 L42.499,32.5082867 L39,33.9772867 L39,42.0042867 C39.008,42.4662867 39.183,46.3392867 42.499,46.9232867 L42.499,46.9232867 Z M43.112,30.0822867 C43.358,29.9772867 43.638,29.9782867 43.886,30.0812867 L49.387,32.3902867 C49.759,32.5462867 50,32.9092867 50,33.3122867 L50,42.0042867 C49.978,44.4312867 48.562,49.0042867 43.37,49.0042867 C38.393,49.0042867 37.026,44.4322867 37,42.0152867 L37,33.3122867 C37,32.9092867 37.241,32.5462867 37.613,32.3902867 L43.112,30.0822867 Z M52,30.7922867 L43.492,27.0922867 L34.9998912,30.6682867 L34.9998912,41.0252867 C34.999,41.0902867 34.963,46.0092867 37.807,48.8942867 C39.187,50.2942867 41.059,51.0042867 43.37,51.0042867 C51.808,51.0042867 51.996,41.4252867 52,41.0182867 L52,30.7922867 Z M54,30.1362867 L54,41.0252867 C53.973,45.1732867 51.716,53.0042867 43.37,53.0042867 C40.498,53.0042867 38.145,52.0902867 36.373,50.2882867 C32.941,46.7972867 32.996,41.2432867 33,41.0082867 L33,30.0042867 C33,29.6022867 33.241,29.2382867 33.612,29.0822867 L43.111,25.0822867 C43.363,24.9762867 43.647,24.9782867 43.897,25.0872867 L53.398,29.2192867 C53.764,29.3782867 54,29.7382867 54,30.1362867 L54,30.1362867 Z M19,38.0042867 L30,38.0042867 L30,40.0042867 L19,40.0042867 C14.216,40.0042867 10.271,36.4832867 10.02,31.9882867 C10.002,31.8132867 10,31.5992867 10,31.3852867 C10,26.0862867 13.654,24.0382867 15.919,23.2782867 C15.902,23.0632867 15.891,22.8432867 15.891,22.6262867 C15.891,18.0392867 18.658,13.7012867 22.621,12.0792867 C27.58,10.0492867 33.235,10.9372867 36.695,14.2852867 C37.718,15.2822867 38.604,16.5962867 39.343,18.2062867 C40.299,17.4222867 41.392,17.0042867 42.523,17.0042867 C45.234,17.0042867 48.281,19.2962867 48.9,23.0622867 C51.069,23.3442867 52.936,24.6392867 53.896,26.5822867 L52.104,27.4692867 C51.34,25.9252867 49.806,25.0042867 48,25.0042867 C47.471,25.0042867 47.033,24.5912867 47.002,24.0632867 C46.807,20.7622867 44.275,19.0042867 42.523,19.0042867 C41.55,19.0042867 40.582,19.5742867 39.797,20.6082867 C39.575,20.8992867 39.215,21.0482867 38.852,20.9932867 C38.49,20.9382867 38.187,20.6912867 38.062,20.3482867 C37.327,18.3462867 36.398,16.7892867 35.302,15.7202867 C32.406,12.9172867 27.615,12.1962867 23.379,13.9302867 C19.775,15.4052867 17.891,19.4212867 17.891,22.6262867 C17.891,23.0262867 17.947,23.5032867 17.993,23.8862867 C18.053,24.3862867 17.73,24.8532867 17.24,24.9752867 C15.283,25.4592867 12,26.9372867 12,31.3852867 C12,31.5352867 11.998,31.6852867 12.013,31.8362867 C12.209,35.3122867 15.276,38.0042867 19,38.0042867 L19,38.0042867 Z" id="Amazon-Virtual-Private-Cloud_Icon_48_Squid" fill="#FFFFFF"/>
    </g>
</svg><rect x="91" y="5" width="24" height="16" rx="8" ry="8" fill="#37bb65"/><text x="103" y="14" style="font-family: sans-serif; font-size: 12px; fill: black; text-anchor: middle; dominant-baseline: middle;">3</text><text x="5" y="14" style="font-family: sans-serif; font-size: 14px; fill: black;" dominant-baseline="middle">public</text></g></g></g><g clip-path="url(#BBT03w4w5HgnKZbeVPwDM)"><g transform="matrix(1, 0, 0, 1, 0, 0)" opacity="1"><g><defs><mask id="shape_module.vpc_example_complete.module.vpc.aws_subnet.public-module.vpc_example_complete.module.vpc.aws_internet_gateway.this:1712759500636_clip"><rect x="334.0625" y="140" width="296.4480113820048" height="549.3965695348097" fill="white"/><path d="M 532.0197125089994 583.5894780116565 L 530.5105113820048 589.3965695348097 L 526.2360231643502 585.1860172578357" fill="none" stroke="none"/></mask></defs><g mask="url(#shape_module.vpc_example_complete.module.vpc.aws_subnet.public-module.vpc_example_complete.module.vpc.aws_internet_gateway.this:1712759500636_clip)"><rect x="-100" y="-100" width="296.4480113820048" height="549.3965695348097" fill="transparent" stroke="none"/><path d="M434.0625,240L530.5105113820048,589.3965695348097" fill="none" stroke="#1d1d1d" stroke-width="2" stroke-dasharray="none" stroke-dashoffset="none"/></g><path d="M 532.0197125089994 583.5894780116565 L 530.5105113820048 589.3965695348097 L 526.2360231643502 585.1860172578357" fill="none" stroke="#1d1d1d" stroke-width="2"/></g></g></g><g clip-path="url(#0gMCSFFD8q_3PdBiho-Fc)"><g transform="matrix(1, 0, 0, 1, 0, 0)" opacity="1"><g><defs><mask id="shape_module.vpc_example_complete.module.vpc.aws_subnet.public-module.vpc_example_complete.module.vpc.aws_nat_gateway.this:1712759500636_clip"><rect x="93.50380707530849" y="129.23076923076925" width="363.9961929246915" height="334.56097881000323" fill="white"/><path d="M 199.42376397730567 362.81496235368644 L 193.5038070753085 363.79174804077246 L 195.61786430723754 358.1765221307909" fill="none" stroke="none"/></mask></defs><g mask="url(#shape_module.vpc_example_complete.module.vpc.aws_subnet.public-module.vpc_example_complete.module.vpc.aws_nat_gateway.this:1712759500636_clip)"><rect x="-100" y="-100" width="363.9961929246915" height="334.56097881000323" fill="transparent" stroke="none"/><path d="M357.5,229.23076923076925L193.5038070753085,363.79174804077246" fill="none" stroke="#1d1d1d" stroke-width="2" stroke-dasharray="none" stroke-dashoffset="none"/></g><path d="M 199.42376397730567 362.81496235368644 L 193.5038070753085 363.79174804077246 L 195.61786430723754 358.1765221307909" fill="none" stroke="#1d1d1d" stroke-width="2"/></g></g></g><g clip-path="url(#ICKXMrwdexJzIel6RcJjk)"><g transform="matrix(1, 0, 0, 1, 800, 360)" opacity="1"><g><rect width="120" height="120" rx="4" fill="white" stroke="black" stroke-width="2"/><text x="5" y="28" style="font-family: sans-serif; font-size: 10px; fill: #504758;" dominant-baseline="middle">Subnet</text><clipPath id="clip-round-corners-hkw9cyi08"><rect x="0" y="0" width="64" height="64" rx="4" ry="4"/></clipPath><svg width="58" height="58" viewBox="0 0 64 64" version="1.1" xmlns="http://www.w3.org/2000/svg" xmlns:xlink="http://www.w3.org/1999/xlink" x="31" y="48" clip-path="url(#clip-round-corners-hkw9cyi08)">
    <title>Icon-Architecture/48/Arch_Amazon-Virtual-Private-Cloud_48</title>
    <g id="Icon-Architecture/48/Arch_Amazon-Virtual-Private-Cloud_48" stroke="none" stroke-width="1" fill="none" fill-rule="evenodd">
        <g id="Icon-Architecture-BG/48/Networking-Content-Delivery" fill="#8C4FFF">
            <rect id="Rectangle" x="0" y="0" width="64" height="64"/>
        </g>
        <path d="M48,33.9772867 L44.499,32.5082867 L44.499,46.8782867 C47.906,46.1472867 47.998,42.1812867 48,41.9952867 L48,33.9772867 Z M42.499,46.9232867 L42.499,32.5082867 L39,33.9772867 L39,42.0042867 C39.008,42.4662867 39.183,46.3392867 42.499,46.9232867 L42.499,46.9232867 Z M43.112,30.0822867 C43.358,29.9772867 43.638,29.9782867 43.886,30.0812867 L49.387,32.3902867 C49.759,32.5462867 50,32.9092867 50,33.3122867 L50,42.0042867 C49.978,44.4312867 48.562,49.0042867 43.37,49.0042867 C38.393,49.0042867 37.026,44.4322867 37,42.0152867 L37,33.3122867 C37,32.9092867 37.241,32.5462867 37.613,32.3902867 L43.112,30.0822867 Z M52,30.7922867 L43.492,27.0922867 L34.9998912,30.6682867 L34.9998912,41.0252867 C34.999,41.0902867 34.963,46.0092867 37.807,48.8942867 C39.187,50.2942867 41.059,51.0042867 43.37,51.0042867 C51.808,51.0042867 51.996,41.4252867 52,41.0182867 L52,30.7922867 Z M54,30.1362867 L54,41.0252867 C53.973,45.1732867 51.716,53.0042867 43.37,53.0042867 C40.498,53.0042867 38.145,52.0902867 36.373,50.2882867 C32.941,46.7972867 32.996,41.2432867 33,41.0082867 L33,30.0042867 C33,29.6022867 33.241,29.2382867 33.612,29.0822867 L43.111,25.0822867 C43.363,24.9762867 43.647,24.9782867 43.897,25.0872867 L53.398,29.2192867 C53.764,29.3782867 54,29.7382867 54,30.1362867 L54,30.1362867 Z M19,38.0042867 L30,38.0042867 L30,40.0042867 L19,40.0042867 C14.216,40.0042867 10.271,36.4832867 10.02,31.9882867 C10.002,31.8132867 10,31.5992867 10,31.3852867 C10,26.0862867 13.654,24.0382867 15.919,23.2782867 C15.902,23.0632867 15.891,22.8432867 15.891,22.6262867 C15.891,18.0392867 18.658,13.7012867 22.621,12.0792867 C27.58,10.0492867 33.235,10.9372867 36.695,14.2852867 C37.718,15.2822867 38.604,16.5962867 39.343,18.2062867 C40.299,17.4222867 41.392,17.0042867 42.523,17.0042867 C45.234,17.0042867 48.281,19.2962867 48.9,23.0622867 C51.069,23.3442867 52.936,24.6392867 53.896,26.5822867 L52.104,27.4692867 C51.34,25.9252867 49.806,25.0042867 48,25.0042867 C47.471,25.0042867 47.033,24.5912867 47.002,24.0632867 C46.807,20.7622867 44.275,19.0042867 42.523,19.0042867 C41.55,19.0042867 40.582,19.5742867 39.797,20.6082867 C39.575,20.8992867 39.215,21.0482867 38.852,20.9932867 C38.49,20.9382867 38.187,20.6912867 38.062,20.3482867 C37.327,18.3462867 36.398,16.7892867 35.302,15.7202867 C32.406,12.9172867 27.615,12.1962867 23.379,13.9302867 C19.775,15.4052867 17.891,19.4212867 17.891,22.6262867 C17.891,23.0262867 17.947,23.5032867 17.993,23.8862867 C18.053,24.3862867 17.73,24.8532867 17.24,24.9752867 C15.283,25.4592867 12,26.9372867 12,31.3852867 C12,31.5352867 11.998,31.6852867 12.013,31.8362867 C12.209,35.3122867 15.276,38.0042867 19,38.0042867 L19,38.0042867 Z" id="Amazon-Virtual-Private-Cloud_Icon_48_Squid" fill="#FFFFFF"/>
    </g>
</svg><rect x="91" y="5" width="24" height="16" rx="8" ry="8" fill="#37bb65"/><text x="103" y="14" style="font-family: sans-serif; font-size: 12px; fill: black; text-anchor: middle; dominant-baseline: middle;">3</text><text x="5" y="14" style="font-family: sans-serif; font-size: 14px; fill: black;" dominant-baseline="middle">redshift</text></g></g></g><g clip-path="url(#UPkRlw6DJRHaIRHik-1CP)"><g transform="matrix(1, 0, 0, 1, 0, 0)" opacity="1"><g><defs><mask id="shape_module.vpc_example_complete.module.vpc.aws_subnet.redshift-module.vpc_example_complete.module.vpc.aws_internet_gateway.this:1712759500636_clip"><rect x="518.697960783753" y="366.45161290322585" width="381.30203921624695" height="340.3628690706428" fill="white"/><path d="M 624.6432012717369 606.0057078768319 L 618.697960783753 606.8144819738686 L 620.9701621137883 601.2613656311485" fill="none" stroke="none"/></mask></defs><g mask="url(#shape_module.vpc_example_complete.module.vpc.aws_subnet.redshift-module.vpc_example_complete.module.vpc.aws_internet_gateway.this:1712759500636_clip)"><rect x="-100" y="-100" width="381.30203921624695" height="340.3628690706428" fill="transparent" stroke="none"/><path d="M800,466.45161290322585L618.697960783753,606.8144819738686" fill="none" stroke="#1d1d1d" stroke-width="2" stroke-dasharray="none" stroke-dashoffset="none"/></g><path d="M 624.6432012717369 606.0057078768319 L 618.697960783753 606.8144819738686 L 620.9701621137883 601.2613656311485" fill="none" stroke="#1d1d1d" stroke-width="2"/></g></g></g><g clip-path="url(#6M-QY6N99EO5dFG--hlJQ)"><g transform="matrix(1, 0, 0, 1, 890, 600)" opacity="1"><g><rect width="120" height="120" rx="4" fill="white" stroke="black" stroke-width="2"/><text x="5" y="28" style="font-family: sans-serif; font-size: 10px; fill: #504758;" dominant-baseline="middle">Vpc</text><clipPath id="clip-round-corners-bft1hhusv"><rect x="0" y="0" width="64" height="64" rx="4" ry="4"/></clipPath><svg width="58" height="58" viewBox="0 0 64 64" version="1.1" xmlns="http://www.w3.org/2000/svg" xmlns:xlink="http://www.w3.org/1999/xlink" x="31" y="48" clip-path="url(#clip-round-corners-bft1hhusv)">
    <title>Icon-Architecture/48/Arch_Amazon-Virtual-Private-Cloud_48</title>
    <g id="Icon-Architecture/48/Arch_Amazon-Virtual-Private-Cloud_48" stroke="none" stroke-width="1" fill="none" fill-rule="evenodd">
        <g id="Icon-Architecture-BG/48/Networking-Content-Delivery" fill="#8C4FFF">
            <rect id="Rectangle" x="0" y="0" width="64" height="64"/>
        </g>
        <path d="M48,33.9772867 L44.499,32.5082867 L44.499,46.8782867 C47.906,46.1472867 47.998,42.1812867 48,41.9952867 L48,33.9772867 Z M42.499,46.9232867 L42.499,32.5082867 L39,33.9772867 L39,42.0042867 C39.008,42.4662867 39.183,46.3392867 42.499,46.9232867 L42.499,46.9232867 Z M43.112,30.0822867 C43.358,29.9772867 43.638,29.9782867 43.886,30.0812867 L49.387,32.3902867 C49.759,32.5462867 50,32.9092867 50,33.3122867 L50,42.0042867 C49.978,44.4312867 48.562,49.0042867 43.37,49.0042867 C38.393,49.0042867 37.026,44.4322867 37,42.0152867 L37,33.3122867 C37,32.9092867 37.241,32.5462867 37.613,32.3902867 L43.112,30.0822867 Z M52,30.7922867 L43.492,27.0922867 L34.9998912,30.6682867 L34.9998912,41.0252867 C34.999,41.0902867 34.963,46.0092867 37.807,48.8942867 C39.187,50.2942867 41.059,51.0042867 43.37,51.0042867 C51.808,51.0042867 51.996,41.4252867 52,41.0182867 L52,30.7922867 Z M54,30.1362867 L54,41.0252867 C53.973,45.1732867 51.716,53.0042867 43.37,53.0042867 C40.498,53.0042867 38.145,52.0902867 36.373,50.2882867 C32.941,46.7972867 32.996,41.2432867 33,41.0082867 L33,30.0042867 C33,29.6022867 33.241,29.2382867 33.612,29.0822867 L43.111,25.0822867 C43.363,24.9762867 43.647,24.9782867 43.897,25.0872867 L53.398,29.2192867 C53.764,29.3782867 54,29.7382867 54,30.1362867 L54,30.1362867 Z M19,38.0042867 L30,38.0042867 L30,40.0042867 L19,40.0042867 C14.216,40.0042867 10.271,36.4832867 10.02,31.9882867 C10.002,31.8132867 10,31.5992867 10,31.3852867 C10,26.0862867 13.654,24.0382867 15.919,23.2782867 C15.902,23.0632867 15.891,22.8432867 15.891,22.6262867 C15.891,18.0392867 18.658,13.7012867 22.621,12.0792867 C27.58,10.0492867 33.235,10.9372867 36.695,14.2852867 C37.718,15.2822867 38.604,16.5962867 39.343,18.2062867 C40.299,17.4222867 41.392,17.0042867 42.523,17.0042867 C45.234,17.0042867 48.281,19.2962867 48.9,23.0622867 C51.069,23.3442867 52.936,24.6392867 53.896,26.5822867 L52.104,27.4692867 C51.34,25.9252867 49.806,25.0042867 48,25.0042867 C47.471,25.0042867 47.033,24.5912867 47.002,24.0632867 C46.807,20.7622867 44.275,19.0042867 42.523,19.0042867 C41.55,19.0042867 40.582,19.5742867 39.797,20.6082867 C39.575,20.8992867 39.215,21.0482867 38.852,20.9932867 C38.49,20.9382867 38.187,20.6912867 38.062,20.3482867 C37.327,18.3462867 36.398,16.7892867 35.302,15.7202867 C32.406,12.9172867 27.615,12.1962867 23.379,13.9302867 C19.775,15.4052867 17.891,19.4212867 17.891,22.6262867 C17.891,23.0262867 17.947,23.5032867 17.993,23.8862867 C18.053,24.3862867 17.73,24.8532867 17.24,24.9752867 C15.283,25.4592867 12,26.9372867 12,31.3852867 C12,31.5352867 11.998,31.6852867 12.013,31.8362867 C12.209,35.3122867 15.276,38.0042867 19,38.0042867 L19,38.0042867 Z" id="Amazon-Virtual-Private-Cloud_Icon_48_Squid" fill="#FFFFFF"/>
    </g>
</svg><rect x="91" y="5" width="24" height="16" rx="8" ry="8" fill="#37bb65"/><text x="103" y="14" style="font-family: sans-serif; font-size: 12px; fill: black; text-anchor: middle; dominant-baseline: middle;">4</text><text x="5" y="14" style="font-family: sans-serif; font-size: 14px; fill: black;" dominant-baseline="middle">this</text></g></g></g><g clip-path="url(#jIVhJPrkQ_1q2yPNNqLYB)"><g transform="matrix(1, 0, 0, 1, 0, 0)" opacity="1"><g><defs><mask id="shape_module.vpc_example_complete.module.vpc.aws_vpc.this-module.vpc_example_complete.module.vpc.aws_vpc.this:1712759500636_clip"><rect x="850" y="560" width="200" height="200" fill="white"/><path d="M NaN NaN L 950 660 L NaN NaN" fill="none" stroke="none"/></mask></defs><g mask="url(#shape_module.vpc_example_complete.module.vpc.aws_vpc.this-module.vpc_example_complete.module.vpc.aws_vpc.this:1712759500636_clip)"><rect x="-100" y="-100" width="200" height="200" fill="transparent" stroke="none"/><path d="M950,660L950,660" fill="none" stroke="#1d1d1d" stroke-width="2" stroke-dasharray="none" stroke-dashoffset="none"/></g><path d="M NaN NaN L 950 660 L NaN NaN" fill="none" stroke="#1d1d1d" stroke-width="2"/></g></g></g></svg>