<svg xmlns="http://www.w3.org/2000/svg" direction="ltr" width="739" height="784" viewBox="-32 -32 739 784" stroke-linecap="round" stroke-linejoin="round" style="background-color: rgb(249, 250, 251);" encoding="UTF-8&quot;"><defs><clipPath id="WGqJ16SblTqcsrKBTkhpu"><path d="M0,0L675,0L675,720L0,720Z"/></clipPath><clipPath id="YQw9UrK95RJ4Dt9uNEvrr"><path d="M0,0L675,0L675,720L0,720Z"/></clipPath><clipPath id="ONJ3Ge0PJ3k57hz5ctUNG"><path d="M0,0L675,0L675,720L0,720Z"/></clipPath><clipPath id="PGQBlnWyfqfIXYNz7Lhf7"><path d="M0,0L675,0L675,720L0,720Z"/></clipPath><clipPath id="28q6vX6g5umK5q9ylYPp3"><path d="M0,0L675,0L675,720L0,720Z"/></clipPath><clipPath id="8aYQmXutUyiMSmMY2gWJp"><path d="M0,0L675,0L675,720L0,720Z"/></clipPath><clipPath id="X7e-ZH6d7BtYbNTz6et8M"><path d="M0,0L675,0L675,720L0,720Z"/></clipPath><clipPath id="_Q3C0zVofBpng0fXNBv15"><path d="M0,0L675,0L675,720L0,720Z"/></clipPath><clipPath id="_pifnTHYjis2IsfSvLADX"><path d="M0,0L675,0L675,720L0,720Z"/></clipPath><clipPath id="likwBxaohHm7zPqqnOmAP"><path d="M0,0L675,0L675,720L0,720Z"/></clipPath><clipPath id="FK8J12N0b4jZ27Lv-6k4A"><path d="M0,0L675,0L675,720L0,720Z"/></clipPath><clipPath id="fo0hrHCQFVxP-itx6k7dk"><path d="M0,0L675,0L675,720L0,720Z"/></clipPath></defs><g transform="matrix(1, 0, 0, 1, 0, 0)" opacity="1"><g><rect width="675" height="720" fill="#fcfffe" stroke="#1d1d1d" stroke-width="1" rx="1" ry="1"/><rect x="-8px" y="-36px" width="77.3671875px" height="32px" rx="4px" ry="4px" fill="rgb(249, 250, 251)"/><text font-size="12px" font-family="Inter, sans-serif" font-style="normal" font-weight="normal" line-height="12px" dominant-baseline="mathematical" alignment-baseline="mathematical"><tspan alignment-baseline="mathematical" x="0px" y="-20px">module.vpc​</tspan></text></g></g><g clip-path="url(#X7e-ZH6d7BtYbNTz6et8M)"><g transform="matrix(1, 0, 0, 1, 120, 540)" opacity="1"><g><rect width="120" height="120" rx="4" fill="white" stroke="black" stroke-width="2"/><text x="5" y="28" style="font-family: sans-serif; font-size: 10px; fill: #504758;" dominant-baseline="middle">Internet Gateway</text><clipPath id="clip-round-corners-nvo5ubpvz"><rect x="0" y="0" width="64" height="64" rx="4" ry="4"/></clipPath><svg width="58" height="58" viewBox="0 0 64 64" version="1.1" xmlns="http://www.w3.org/2000/svg" xmlns:xlink="http://www.w3.org/1999/xlink" x="31" y="48" clip-path="url(#clip-round-corners-nvo5ubpvz)">
    <title>Icon-Architecture/48/Arch_Amazon-Virtual-Private-Cloud_48</title>
    <g id="Icon-Architecture/48/Arch_Amazon-Virtual-Private-Cloud_48" stroke="none" stroke-width="1" fill="none" fill-rule="evenodd">
        <g id="Icon-Architecture-BG/48/Networking-Content-Delivery" fill="#8C4FFF">
            <rect id="Rectangle" x="0" y="0" width="64" height="64"/>
        </g>
        <path d="M48,33.9772867 L44.499,32.5082867 L44.499,46.8782867 C47.906,46.1472867 47.998,42.1812867 48,41.9952867 L48,33.9772867 Z M42.499,46.9232867 L42.499,32.5082867 L39,33.9772867 L39,42.0042867 C39.008,42.4662867 39.183,46.3392867 42.499,46.9232867 L42.499,46.9232867 Z M43.112,30.0822867 C43.358,29.9772867 43.638,29.9782867 43.886,30.0812867 L49.387,32.3902867 C49.759,32.5462867 50,32.9092867 50,33.3122867 L50,42.0042867 C49.978,44.4312867 48.562,49.0042867 43.37,49.0042867 C38.393,49.0042867 37.026,44.4322867 37,42.0152867 L37,33.3122867 C37,32.9092867 37.241,32.5462867 37.613,32.3902867 L43.112,30.0822867 Z M52,30.7922867 L43.492,27.0922867 L34.9998912,30.6682867 L34.9998912,41.0252867 C34.999,41.0902867 34.963,46.0092867 37.807,48.8942867 C39.187,50.2942867 41.059,51.0042867 43.37,51.0042867 C51.808,51.0042867 51.996,41.4252867 52,41.0182867 L52,30.7922867 Z M54,30.1362867 L54,41.0252867 C53.973,45.1732867 51.716,53.0042867 43.37,53.0042867 C40.498,53.0042867 38.145,52.0902867 36.373,50.2882867 C32.941,46.7972867 32.996,41.2432867 33,41.0082867 L33,30.0042867 C33,29.6022867 33.241,29.2382867 33.612,29.0822867 L43.111,25.0822867 C43.363,24.9762867 43.647,24.9782867 43.897,25.0872867 L53.398,29.2192867 C53.764,29.3782867 54,29.7382867 54,30.1362867 L54,30.1362867 Z M19,38.0042867 L30,38.0042867 L30,40.0042867 L19,40.0042867 C14.216,40.0042867 10.271,36.4832867 10.02,31.9882867 C10.002,31.8132867 10,31.5992867 10,31.3852867 C10,26.0862867 13.654,24.0382867 15.919,23.2782867 C15.902,23.0632867 15.891,22.8432867 15.891,22.6262867 C15.891,18.0392867 18.658,13.7012867 22.621,12.0792867 C27.58,10.0492867 33.235,10.9372867 36.695,14.2852867 C37.718,15.2822867 38.604,16.5962867 39.343,18.2062867 C40.299,17.4222867 41.392,17.0042867 42.523,17.0042867 C45.234,17.0042867 48.281,19.2962867 48.9,23.0622867 C51.069,23.3442867 52.936,24.6392867 53.896,26.5822867 L52.104,27.4692867 C51.34,25.9252867 49.806,25.0042867 48,25.0042867 C47.471,25.0042867 47.033,24.5912867 47.002,24.0632867 C46.807,20.7622867 44.275,19.0042867 42.523,19.0042867 C41.55,19.0042867 40.582,19.5742867 39.797,20.6082867 C39.575,20.8992867 39.215,21.0482867 38.852,20.9932867 C38.49,20.9382867 38.187,20.6912867 38.062,20.3482867 C37.327,18.3462867 36.398,16.7892867 35.302,15.7202867 C32.406,12.9172867 27.615,12.1962867 23.379,13.9302867 C19.775,15.4052867 17.891,19.4212867 17.891,22.6262867 C17.891,23.0262867 17.947,23.5032867 17.993,23.8862867 C18.053,24.3862867 17.73,24.8532867 17.24,24.9752867 C15.283,25.4592867 12,26.9372867 12,31.3852867 C12,31.5352867 11.998,31.6852867 12.013,31.8362867 C12.209,35.3122867 15.276,38.0042867 19,38.0042867 L19,38.0042867 Z" id="Amazon-Virtual-Private-Cloud_Icon_48_Squid" fill="#FFFFFF"/>
    </g>
</svg><rect x="90.6" y="5" width="24.4" height="16" rx="8" ry="8" fill="#37bb65"/><text x="102.8" y="14" style="font-family: sans-serif; font-size: 12px; fill: black; text-anchor: middle; dominant-baseline: middle;">15</text><text x="5" y="14" style="font-family: sans-serif; font-size: 14px; fill: black;" dominant-baseline="middle">this</text></g></g></g><g clip-path="url(#WGqJ16SblTqcsrKBTkhpu)"><g transform="matrix(1, 0, 0, 1, 0, 0)" opacity="1"><g><defs><mask id="shape_module.vpc.aws_internet_gateway.this-module.vpc.aws_internet_gateway.this:1712757810377_clip"><rect x="80" y="500" width="200" height="200" fill="white"/><path d="M NaN NaN L 180 600 L NaN NaN" fill="none" stroke="none"/></mask></defs><g mask="url(#shape_module.vpc.aws_internet_gateway.this-module.vpc.aws_internet_gateway.this:1712757810377_clip)"><rect x="-100" y="-100" width="200" height="200" fill="transparent" stroke="none"/><path d="M180,600L180,600" fill="none" stroke="#1d1d1d" stroke-width="2" stroke-dasharray="none" stroke-dashoffset="none"/></g><path d="M NaN NaN L 180 600 L NaN NaN" fill="none" stroke="#1d1d1d" stroke-width="2"/></g></g></g><g clip-path="url(#_pifnTHYjis2IsfSvLADX)"><g transform="matrix(1, 0, 0, 1, 35, 300)" opacity="1"><g><rect width="120" height="120" rx="4" fill="white" stroke="black" stroke-width="2"/><text x="5" y="28" style="font-family: sans-serif; font-size: 10px; fill: #504758;" dominant-baseline="middle">Nat Gateway</text><clipPath id="clip-round-corners-s1di2kyt1"><rect x="0" y="0" width="64" height="64" rx="4" ry="4"/></clipPath><svg width="58" height="58" viewBox="0 0 64 64" version="1.1" xmlns="http://www.w3.org/2000/svg" xmlns:xlink="http://www.w3.org/1999/xlink" x="31" y="48" clip-path="url(#clip-round-corners-s1di2kyt1)">
    <title>Icon-Architecture/48/Arch_Amazon-Virtual-Private-Cloud_48</title>
    <g id="Icon-Architecture/48/Arch_Amazon-Virtual-Private-Cloud_48" stroke="none" stroke-width="1" fill="none" fill-rule="evenodd">
        <g id="Icon-Architecture-BG/48/Networking-Content-Delivery" fill="#8C4FFF">
            <rect id="Rectangle" x="0" y="0" width="64" height="64"/>
        </g>
        <path d="M48,33.9772867 L44.499,32.5082867 L44.499,46.8782867 C47.906,46.1472867 47.998,42.1812867 48,41.9952867 L48,33.9772867 Z M42.499,46.9232867 L42.499,32.5082867 L39,33.9772867 L39,42.0042867 C39.008,42.4662867 39.183,46.3392867 42.499,46.9232867 L42.499,46.9232867 Z M43.112,30.0822867 C43.358,29.9772867 43.638,29.9782867 43.886,30.0812867 L49.387,32.3902867 C49.759,32.5462867 50,32.9092867 50,33.3122867 L50,42.0042867 C49.978,44.4312867 48.562,49.0042867 43.37,49.0042867 C38.393,49.0042867 37.026,44.4322867 37,42.0152867 L37,33.3122867 C37,32.9092867 37.241,32.5462867 37.613,32.3902867 L43.112,30.0822867 Z M52,30.7922867 L43.492,27.0922867 L34.9998912,30.6682867 L34.9998912,41.0252867 C34.999,41.0902867 34.963,46.0092867 37.807,48.8942867 C39.187,50.2942867 41.059,51.0042867 43.37,51.0042867 C51.808,51.0042867 51.996,41.4252867 52,41.0182867 L52,30.7922867 Z M54,30.1362867 L54,41.0252867 C53.973,45.1732867 51.716,53.0042867 43.37,53.0042867 C40.498,53.0042867 38.145,52.0902867 36.373,50.2882867 C32.941,46.7972867 32.996,41.2432867 33,41.0082867 L33,30.0042867 C33,29.6022867 33.241,29.2382867 33.612,29.0822867 L43.111,25.0822867 C43.363,24.9762867 43.647,24.9782867 43.897,25.0872867 L53.398,29.2192867 C53.764,29.3782867 54,29.7382867 54,30.1362867 L54,30.1362867 Z M19,38.0042867 L30,38.0042867 L30,40.0042867 L19,40.0042867 C14.216,40.0042867 10.271,36.4832867 10.02,31.9882867 C10.002,31.8132867 10,31.5992867 10,31.3852867 C10,26.0862867 13.654,24.0382867 15.919,23.2782867 C15.902,23.0632867 15.891,22.8432867 15.891,22.6262867 C15.891,18.0392867 18.658,13.7012867 22.621,12.0792867 C27.58,10.0492867 33.235,10.9372867 36.695,14.2852867 C37.718,15.2822867 38.604,16.5962867 39.343,18.2062867 C40.299,17.4222867 41.392,17.0042867 42.523,17.0042867 C45.234,17.0042867 48.281,19.2962867 48.9,23.0622867 C51.069,23.3442867 52.936,24.6392867 53.896,26.5822867 L52.104,27.4692867 C51.34,25.9252867 49.806,25.0042867 48,25.0042867 C47.471,25.0042867 47.033,24.5912867 47.002,24.0632867 C46.807,20.7622867 44.275,19.0042867 42.523,19.0042867 C41.55,19.0042867 40.582,19.5742867 39.797,20.6082867 C39.575,20.8992867 39.215,21.0482867 38.852,20.9932867 C38.49,20.9382867 38.187,20.6912867 38.062,20.3482867 C37.327,18.3462867 36.398,16.7892867 35.302,15.7202867 C32.406,12.9172867 27.615,12.1962867 23.379,13.9302867 C19.775,15.4052867 17.891,19.4212867 17.891,22.6262867 C17.891,23.0262867 17.947,23.5032867 17.993,23.8862867 C18.053,24.3862867 17.73,24.8532867 17.24,24.9752867 C15.283,25.4592867 12,26.9372867 12,31.3852867 C12,31.5352867 11.998,31.6852867 12.013,31.8362867 C12.209,35.3122867 15.276,38.0042867 19,38.0042867 L19,38.0042867 Z" id="Amazon-Virtual-Private-Cloud_Icon_48_Squid" fill="#FFFFFF"/>
    </g>
</svg><rect x="91" y="5" width="24" height="16" rx="8" ry="8" fill="#37bb65"/><text x="103" y="14" style="font-family: sans-serif; font-size: 12px; fill: black; text-anchor: middle; dominant-baseline: middle;">3</text><text x="5" y="14" style="font-family: sans-serif; font-size: 14px; fill: black;" dominant-baseline="middle">this</text></g></g></g><g clip-path="url(#YQw9UrK95RJ4Dt9uNEvrr)"><g transform="matrix(1, 0, 0, 1, 0, 0)" opacity="1"><g><defs><mask id="shape_module.vpc.aws_nat_gateway.this-module.vpc.aws_internet_gateway.this:1712757810377_clip"><rect x="16.25" y="320" width="238.82768143530947" height="309.6311005232267" fill="white"/><path d="M 156.17084247380518 523.7315243567622 L 155.07768143530947 529.6311005232267 L 150.5150791228379 525.7346072102298" fill="none" stroke="none"/></mask></defs><g mask="url(#shape_module.vpc.aws_nat_gateway.this-module.vpc.aws_internet_gateway.this:1712757810377_clip)"><rect x="-100" y="-100" width="238.82768143530947" height="309.6311005232267" fill="transparent" stroke="none"/><path d="M116.25,420L155.07768143530947,529.6311005232267" fill="none" stroke="#1d1d1d" stroke-width="2" stroke-dasharray="none" stroke-dashoffset="none"/></g><path d="M 156.17084247380518 523.7315243567622 L 155.07768143530947 529.6311005232267 L 150.5150791228379 525.7346072102298" fill="none" stroke="#1d1d1d" stroke-width="2"/></g></g></g><g clip-path="url(#likwBxaohHm7zPqqnOmAP)"><g transform="matrix(1, 0, 0, 1, 205, 300)" opacity="1"><g><rect width="120" height="120" rx="4" fill="white" stroke="black" stroke-width="2"/><text x="5" y="28" style="font-family: sans-serif; font-size: 10px; fill: #504758;" dominant-baseline="middle">Subnet</text><clipPath id="clip-round-corners-ncemozabe"><rect x="0" y="0" width="64" height="64" rx="4" ry="4"/></clipPath><svg width="58" height="58" viewBox="0 0 64 64" version="1.1" xmlns="http://www.w3.org/2000/svg" xmlns:xlink="http://www.w3.org/1999/xlink" x="31" y="48" clip-path="url(#clip-round-corners-ncemozabe)">
    <title>Icon-Architecture/48/Arch_Amazon-Virtual-Private-Cloud_48</title>
    <g id="Icon-Architecture/48/Arch_Amazon-Virtual-Private-Cloud_48" stroke="none" stroke-width="1" fill="none" fill-rule="evenodd">
        <g id="Icon-Architecture-BG/48/Networking-Content-Delivery" fill="#8C4FFF">
            <rect id="Rectangle" x="0" y="0" width="64" height="64"/>
        </g>
        <path d="M48,33.9772867 L44.499,32.5082867 L44.499,46.8782867 C47.906,46.1472867 47.998,42.1812867 48,41.9952867 L48,33.9772867 Z M42.499,46.9232867 L42.499,32.5082867 L39,33.9772867 L39,42.0042867 C39.008,42.4662867 39.183,46.3392867 42.499,46.9232867 L42.499,46.9232867 Z M43.112,30.0822867 C43.358,29.9772867 43.638,29.9782867 43.886,30.0812867 L49.387,32.3902867 C49.759,32.5462867 50,32.9092867 50,33.3122867 L50,42.0042867 C49.978,44.4312867 48.562,49.0042867 43.37,49.0042867 C38.393,49.0042867 37.026,44.4322867 37,42.0152867 L37,33.3122867 C37,32.9092867 37.241,32.5462867 37.613,32.3902867 L43.112,30.0822867 Z M52,30.7922867 L43.492,27.0922867 L34.9998912,30.6682867 L34.9998912,41.0252867 C34.999,41.0902867 34.963,46.0092867 37.807,48.8942867 C39.187,50.2942867 41.059,51.0042867 43.37,51.0042867 C51.808,51.0042867 51.996,41.4252867 52,41.0182867 L52,30.7922867 Z M54,30.1362867 L54,41.0252867 C53.973,45.1732867 51.716,53.0042867 43.37,53.0042867 C40.498,53.0042867 38.145,52.0902867 36.373,50.2882867 C32.941,46.7972867 32.996,41.2432867 33,41.0082867 L33,30.0042867 C33,29.6022867 33.241,29.2382867 33.612,29.0822867 L43.111,25.0822867 C43.363,24.9762867 43.647,24.9782867 43.897,25.0872867 L53.398,29.2192867 C53.764,29.3782867 54,29.7382867 54,30.1362867 L54,30.1362867 Z M19,38.0042867 L30,38.0042867 L30,40.0042867 L19,40.0042867 C14.216,40.0042867 10.271,36.4832867 10.02,31.9882867 C10.002,31.8132867 10,31.5992867 10,31.3852867 C10,26.0862867 13.654,24.0382867 15.919,23.2782867 C15.902,23.0632867 15.891,22.8432867 15.891,22.6262867 C15.891,18.0392867 18.658,13.7012867 22.621,12.0792867 C27.58,10.0492867 33.235,10.9372867 36.695,14.2852867 C37.718,15.2822867 38.604,16.5962867 39.343,18.2062867 C40.299,17.4222867 41.392,17.0042867 42.523,17.0042867 C45.234,17.0042867 48.281,19.2962867 48.9,23.0622867 C51.069,23.3442867 52.936,24.6392867 53.896,26.5822867 L52.104,27.4692867 C51.34,25.9252867 49.806,25.0042867 48,25.0042867 C47.471,25.0042867 47.033,24.5912867 47.002,24.0632867 C46.807,20.7622867 44.275,19.0042867 42.523,19.0042867 C41.55,19.0042867 40.582,19.5742867 39.797,20.6082867 C39.575,20.8992867 39.215,21.0482867 38.852,20.9932867 C38.49,20.9382867 38.187,20.6912867 38.062,20.3482867 C37.327,18.3462867 36.398,16.7892867 35.302,15.7202867 C32.406,12.9172867 27.615,12.1962867 23.379,13.9302867 C19.775,15.4052867 17.891,19.4212867 17.891,22.6262867 C17.891,23.0262867 17.947,23.5032867 17.993,23.8862867 C18.053,24.3862867 17.73,24.8532867 17.24,24.9752867 C15.283,25.4592867 12,26.9372867 12,31.3852867 C12,31.5352867 11.998,31.6852867 12.013,31.8362867 C12.209,35.3122867 15.276,38.0042867 19,38.0042867 L19,38.0042867 Z" id="Amazon-Virtual-Private-Cloud_Icon_48_Squid" fill="#FFFFFF"/>
    </g>
</svg><rect x="91" y="5" width="24" height="16" rx="8" ry="8" fill="#37bb65"/><text x="103" y="14" style="font-family: sans-serif; font-size: 12px; fill: black; text-anchor: middle; dominant-baseline: middle;">3</text><text x="5" y="14" style="font-family: sans-serif; font-size: 14px; fill: black;" dominant-baseline="middle">private</text></g></g></g><g clip-path="url(#ONJ3Ge0PJ3k57hz5ctUNG)"><g transform="matrix(1, 0, 0, 1, 0, 0)" opacity="1"><g><defs><mask id="shape_module.vpc.aws_subnet.private-module.vpc.aws_internet_gateway.this:1712757810377_clip"><rect x="104.92231856469053" y="320" width="238.82768143530947" height="309.6311005232267" fill="white"/><path d="M 209.4849208771621 525.7346072102298 L 204.92231856469053 529.6311005232267 L 203.82915752619482 523.7315243567622" fill="none" stroke="none"/></mask></defs><g mask="url(#shape_module.vpc.aws_subnet.private-module.vpc.aws_internet_gateway.this:1712757810377_clip)"><rect x="-100" y="-100" width="238.82768143530947" height="309.6311005232267" fill="transparent" stroke="none"/><path d="M243.75,420L204.92231856469053,529.6311005232267" fill="none" stroke="#1d1d1d" stroke-width="2" stroke-dasharray="none" stroke-dashoffset="none"/></g><path d="M 209.4849208771621 525.7346072102298 L 204.92231856469053 529.6311005232267 L 203.82915752619482 523.7315243567622" fill="none" stroke="#1d1d1d" stroke-width="2"/></g></g></g><g clip-path="url(#FK8J12N0b4jZ27Lv-6k4A)"><g transform="matrix(1, 0, 0, 1, 120, 60)" opacity="1"><g><rect width="120" height="120" rx="4" fill="white" stroke="black" stroke-width="2"/><text x="5" y="28" style="font-family: sans-serif; font-size: 10px; fill: #504758;" dominant-baseline="middle">Subnet</text><clipPath id="clip-round-corners-5qq417wmo"><rect x="0" y="0" width="64" height="64" rx="4" ry="4"/></clipPath><svg width="58" height="58" viewBox="0 0 64 64" version="1.1" xmlns="http://www.w3.org/2000/svg" xmlns:xlink="http://www.w3.org/1999/xlink" x="31" y="48" clip-path="url(#clip-round-corners-5qq417wmo)">
    <title>Icon-Architecture/48/Arch_Amazon-Virtual-Private-Cloud_48</title>
    <g id="Icon-Architecture/48/Arch_Amazon-Virtual-Private-Cloud_48" stroke="none" stroke-width="1" fill="none" fill-rule="evenodd">
        <g id="Icon-Architecture-BG/48/Networking-Content-Delivery" fill="#8C4FFF">
            <rect id="Rectangle" x="0" y="0" width="64" height="64"/>
        </g>
        <path d="M48,33.9772867 L44.499,32.5082867 L44.499,46.8782867 C47.906,46.1472867 47.998,42.1812867 48,41.9952867 L48,33.9772867 Z M42.499,46.9232867 L42.499,32.5082867 L39,33.9772867 L39,42.0042867 C39.008,42.4662867 39.183,46.3392867 42.499,46.9232867 L42.499,46.9232867 Z M43.112,30.0822867 C43.358,29.9772867 43.638,29.9782867 43.886,30.0812867 L49.387,32.3902867 C49.759,32.5462867 50,32.9092867 50,33.3122867 L50,42.0042867 C49.978,44.4312867 48.562,49.0042867 43.37,49.0042867 C38.393,49.0042867 37.026,44.4322867 37,42.0152867 L37,33.3122867 C37,32.9092867 37.241,32.5462867 37.613,32.3902867 L43.112,30.0822867 Z M52,30.7922867 L43.492,27.0922867 L34.9998912,30.6682867 L34.9998912,41.0252867 C34.999,41.0902867 34.963,46.0092867 37.807,48.8942867 C39.187,50.2942867 41.059,51.0042867 43.37,51.0042867 C51.808,51.0042867 51.996,41.4252867 52,41.0182867 L52,30.7922867 Z M54,30.1362867 L54,41.0252867 C53.973,45.1732867 51.716,53.0042867 43.37,53.0042867 C40.498,53.0042867 38.145,52.0902867 36.373,50.2882867 C32.941,46.7972867 32.996,41.2432867 33,41.0082867 L33,30.0042867 C33,29.6022867 33.241,29.2382867 33.612,29.0822867 L43.111,25.0822867 C43.363,24.9762867 43.647,24.9782867 43.897,25.0872867 L53.398,29.2192867 C53.764,29.3782867 54,29.7382867 54,30.1362867 L54,30.1362867 Z M19,38.0042867 L30,38.0042867 L30,40.0042867 L19,40.0042867 C14.216,40.0042867 10.271,36.4832867 10.02,31.9882867 C10.002,31.8132867 10,31.5992867 10,31.3852867 C10,26.0862867 13.654,24.0382867 15.919,23.2782867 C15.902,23.0632867 15.891,22.8432867 15.891,22.6262867 C15.891,18.0392867 18.658,13.7012867 22.621,12.0792867 C27.58,10.0492867 33.235,10.9372867 36.695,14.2852867 C37.718,15.2822867 38.604,16.5962867 39.343,18.2062867 C40.299,17.4222867 41.392,17.0042867 42.523,17.0042867 C45.234,17.0042867 48.281,19.2962867 48.9,23.0622867 C51.069,23.3442867 52.936,24.6392867 53.896,26.5822867 L52.104,27.4692867 C51.34,25.9252867 49.806,25.0042867 48,25.0042867 C47.471,25.0042867 47.033,24.5912867 47.002,24.0632867 C46.807,20.7622867 44.275,19.0042867 42.523,19.0042867 C41.55,19.0042867 40.582,19.5742867 39.797,20.6082867 C39.575,20.8992867 39.215,21.0482867 38.852,20.9932867 C38.49,20.9382867 38.187,20.6912867 38.062,20.3482867 C37.327,18.3462867 36.398,16.7892867 35.302,15.7202867 C32.406,12.9172867 27.615,12.1962867 23.379,13.9302867 C19.775,15.4052867 17.891,19.4212867 17.891,22.6262867 C17.891,23.0262867 17.947,23.5032867 17.993,23.8862867 C18.053,24.3862867 17.73,24.8532867 17.24,24.9752867 C15.283,25.4592867 12,26.9372867 12,31.3852867 C12,31.5352867 11.998,31.6852867 12.013,31.8362867 C12.209,35.3122867 15.276,38.0042867 19,38.0042867 L19,38.0042867 Z" id="Amazon-Virtual-Private-Cloud_Icon_48_Squid" fill="#FFFFFF"/>
    </g>
</svg><rect x="91" y="5" width="24" height="16" rx="8" ry="8" fill="#37bb65"/><text x="103" y="14" style="font-family: sans-serif; font-size: 12px; fill: black; text-anchor: middle; dominant-baseline: middle;">3</text><text x="5" y="14" style="font-family: sans-serif; font-size: 14px; fill: black;" dominant-baseline="middle">public</text></g></g></g><g clip-path="url(#PGQBlnWyfqfIXYNz7Lhf7)"><g transform="matrix(1, 0, 0, 1, 0, 0)" opacity="1"><g><defs><mask id="shape_module.vpc.aws_subnet.public-module.vpc.aws_internet_gateway.this:1712757810377_clip"><rect x="80" y="80" width="200" height="549" fill="white"/><path d="M 183 523.8038475772934 L 180 529 L 177 523.8038475772934" fill="none" stroke="none"/></mask></defs><g mask="url(#shape_module.vpc.aws_subnet.public-module.vpc.aws_internet_gateway.this:1712757810377_clip)"><rect x="-100" y="-100" width="200" height="549" fill="transparent" stroke="none"/><path d="M180,180L180,529" fill="none" stroke="#1d1d1d" stroke-width="2" stroke-dasharray="none" stroke-dashoffset="none"/></g><path d="M 183 523.8038475772934 L 180 529 L 177 523.8038475772934" fill="none" stroke="#1d1d1d" stroke-width="2"/></g></g></g><g clip-path="url(#28q6vX6g5umK5q9ylYPp3)"><g transform="matrix(1, 0, 0, 1, 0, 0)" opacity="1"><g><defs><mask id="shape_module.vpc.aws_subnet.public-module.vpc.aws_nat_gateway.this:1712757810377_clip"><rect x="19.922318564690542" y="80" width="238.82768143530944" height="309.63110052322673" fill="white"/><path d="M 124.48492087716208 285.7346072102299 L 119.92231856469054 289.63110052322673 L 118.82915752619486 283.73152435676235" fill="none" stroke="none"/></mask></defs><g mask="url(#shape_module.vpc.aws_subnet.public-module.vpc.aws_nat_gateway.this:1712757810377_clip)"><rect x="-100" y="-100" width="238.82768143530944" height="309.63110052322673" fill="transparent" stroke="none"/><path d="M158.75,180L119.92231856469054,289.63110052322673" fill="none" stroke="#1d1d1d" stroke-width="2" stroke-dasharray="none" stroke-dashoffset="none"/></g><path d="M 124.48492087716208 285.7346072102299 L 119.92231856469054 289.63110052322673 L 118.82915752619486 283.73152435676235" fill="none" stroke="#1d1d1d" stroke-width="2"/></g></g></g><g clip-path="url(#fo0hrHCQFVxP-itx6k7dk)"><g transform="matrix(1, 0, 0, 1, 320, 540)" opacity="1"><g><rect width="120" height="120" rx="4" fill="white" stroke="black" stroke-width="2"/><text x="5" y="28" style="font-family: sans-serif; font-size: 10px; fill: #504758;" dominant-baseline="middle">Vpc</text><clipPath id="clip-round-corners-x53ovcyme"><rect x="0" y="0" width="64" height="64" rx="4" ry="4"/></clipPath><svg width="58" height="58" viewBox="0 0 64 64" version="1.1" xmlns="http://www.w3.org/2000/svg" xmlns:xlink="http://www.w3.org/1999/xlink" x="31" y="48" clip-path="url(#clip-round-corners-x53ovcyme)">
    <title>Icon-Architecture/48/Arch_Amazon-Virtual-Private-Cloud_48</title>
    <g id="Icon-Architecture/48/Arch_Amazon-Virtual-Private-Cloud_48" stroke="none" stroke-width="1" fill="none" fill-rule="evenodd">
        <g id="Icon-Architecture-BG/48/Networking-Content-Delivery" fill="#8C4FFF">
            <rect id="Rectangle" x="0" y="0" width="64" height="64"/>
        </g>
        <path d="M48,33.9772867 L44.499,32.5082867 L44.499,46.8782867 C47.906,46.1472867 47.998,42.1812867 48,41.9952867 L48,33.9772867 Z M42.499,46.9232867 L42.499,32.5082867 L39,33.9772867 L39,42.0042867 C39.008,42.4662867 39.183,46.3392867 42.499,46.9232867 L42.499,46.9232867 Z M43.112,30.0822867 C43.358,29.9772867 43.638,29.9782867 43.886,30.0812867 L49.387,32.3902867 C49.759,32.5462867 50,32.9092867 50,33.3122867 L50,42.0042867 C49.978,44.4312867 48.562,49.0042867 43.37,49.0042867 C38.393,49.0042867 37.026,44.4322867 37,42.0152867 L37,33.3122867 C37,32.9092867 37.241,32.5462867 37.613,32.3902867 L43.112,30.0822867 Z M52,30.7922867 L43.492,27.0922867 L34.9998912,30.6682867 L34.9998912,41.0252867 C34.999,41.0902867 34.963,46.0092867 37.807,48.8942867 C39.187,50.2942867 41.059,51.0042867 43.37,51.0042867 C51.808,51.0042867 51.996,41.4252867 52,41.0182867 L52,30.7922867 Z M54,30.1362867 L54,41.0252867 C53.973,45.1732867 51.716,53.0042867 43.37,53.0042867 C40.498,53.0042867 38.145,52.0902867 36.373,50.2882867 C32.941,46.7972867 32.996,41.2432867 33,41.0082867 L33,30.0042867 C33,29.6022867 33.241,29.2382867 33.612,29.0822867 L43.111,25.0822867 C43.363,24.9762867 43.647,24.9782867 43.897,25.0872867 L53.398,29.2192867 C53.764,29.3782867 54,29.7382867 54,30.1362867 L54,30.1362867 Z M19,38.0042867 L30,38.0042867 L30,40.0042867 L19,40.0042867 C14.216,40.0042867 10.271,36.4832867 10.02,31.9882867 C10.002,31.8132867 10,31.5992867 10,31.3852867 C10,26.0862867 13.654,24.0382867 15.919,23.2782867 C15.902,23.0632867 15.891,22.8432867 15.891,22.6262867 C15.891,18.0392867 18.658,13.7012867 22.621,12.0792867 C27.58,10.0492867 33.235,10.9372867 36.695,14.2852867 C37.718,15.2822867 38.604,16.5962867 39.343,18.2062867 C40.299,17.4222867 41.392,17.0042867 42.523,17.0042867 C45.234,17.0042867 48.281,19.2962867 48.9,23.0622867 C51.069,23.3442867 52.936,24.6392867 53.896,26.5822867 L52.104,27.4692867 C51.34,25.9252867 49.806,25.0042867 48,25.0042867 C47.471,25.0042867 47.033,24.5912867 47.002,24.0632867 C46.807,20.7622867 44.275,19.0042867 42.523,19.0042867 C41.55,19.0042867 40.582,19.5742867 39.797,20.6082867 C39.575,20.8992867 39.215,21.0482867 38.852,20.9932867 C38.49,20.9382867 38.187,20.6912867 38.062,20.3482867 C37.327,18.3462867 36.398,16.7892867 35.302,15.7202867 C32.406,12.9172867 27.615,12.1962867 23.379,13.9302867 C19.775,15.4052867 17.891,19.4212867 17.891,22.6262867 C17.891,23.0262867 17.947,23.5032867 17.993,23.8862867 C18.053,24.3862867 17.73,24.8532867 17.24,24.9752867 C15.283,25.4592867 12,26.9372867 12,31.3852867 C12,31.5352867 11.998,31.6852867 12.013,31.8362867 C12.209,35.3122867 15.276,38.0042867 19,38.0042867 L19,38.0042867 Z" id="Amazon-Virtual-Private-Cloud_Icon_48_Squid" fill="#FFFFFF"/>
    </g>
</svg><rect x="91" y="5" width="24" height="16" rx="8" ry="8" fill="#37bb65"/><text x="103" y="14" style="font-family: sans-serif; font-size: 12px; fill: black; text-anchor: middle; dominant-baseline: middle;">4</text><text x="5" y="14" style="font-family: sans-serif; font-size: 14px; fill: black;" dominant-baseline="middle">this</text></g></g></g><g clip-path="url(#8aYQmXutUyiMSmMY2gWJp)"><g transform="matrix(1, 0, 0, 1, 0, 0)" opacity="1"><g><defs><mask id="shape_module.vpc.aws_vpc.this-module.vpc.aws_vpc.this:1712757810377_clip"><rect x="280" y="500" width="200" height="200" fill="white"/><path d="M NaN NaN L 380 600 L NaN NaN" fill="none" stroke="none"/></mask></defs><g mask="url(#shape_module.vpc.aws_vpc.this-module.vpc.aws_vpc.this:1712757810377_clip)"><rect x="-100" y="-100" width="200" height="200" fill="transparent" stroke="none"/><path d="M380,600L380,600" fill="none" stroke="#1d1d1d" stroke-width="2" stroke-dasharray="none" stroke-dashoffset="none"/></g><path d="M NaN NaN L 380 600 L NaN NaN" fill="none" stroke="#1d1d1d" stroke-width="2"/></g></g></g><g clip-path="url(#_Q3C0zVofBpng0fXNBv15)"><g transform="matrix(1, 0, 0, 1, 520, 540)" opacity="1"><g><rect width="120" height="120" rx="4" fill="white" stroke="black" stroke-width="2"/><text x="5" y="28" style="font-family: sans-serif; font-size: 10px; fill: #504758;" dominant-baseline="middle">Vpn Gateway</text><clipPath id="clip-round-corners-cy1w1bn37"><rect x="0" y="0" width="64" height="64" rx="4" ry="4"/></clipPath><svg width="58" height="58" viewBox="0 0 64 64" version="1.1" xmlns="http://www.w3.org/2000/svg" xmlns:xlink="http://www.w3.org/1999/xlink" x="31" y="48" clip-path="url(#clip-round-corners-cy1w1bn37)">
    <title>Icon-Architecture/48/Arch_AWS-Site-to-Site-VPN_48</title>
    <g id="Icon-Architecture/48/Arch_AWS-Site-to-Site-VPN_48" stroke="none" stroke-width="1" fill="none" fill-rule="evenodd">
        <g id="Icon-Architecture-BG/48/Networking-Content-Delivery" fill="#8C4FFF">
            <rect id="Rectangle" x="0" y="0" width="64" height="64"/>
        </g>
        <g id="Icon-Service/48/AWS-Site-to-Site-VPN_48" transform="translate(10.600000, 10.000000)" fill="#FFFFFF">
            <path d="M21.414,28 C22.517,28 23.414,28.897 23.414,30 C23.414,31.103 22.517,32 21.414,32 C20.311,32 19.414,31.103 19.414,30 C19.414,28.897 20.311,28 21.414,28 L21.414,28 Z M20.414,33.858 L20.414,38 L22.414,38 L22.414,33.858 C24.135,33.411 25.414,31.858 25.414,30 C25.414,27.794 23.62,26 21.414,26 C19.208,26 17.414,27.794 17.414,30 C17.414,31.858 18.693,33.411 20.414,33.858 L20.414,33.858 Z M42.828,14 L38.121,18.707 L36.707,17.293 L39,15 L3.828,15 L6.121,17.293 L4.707,18.707 L0,14 L4.707,9.293 L6.121,10.707 L3.828,13 L39,13 L36.707,10.707 L38.121,9.293 L42.828,14 Z M13.414,11 L11.414,11 L11.414,10 C11.414,4.486 15.9,0 21.414,0 C26.928,0 31.414,4.486 31.414,10 L31.414,11 L29.414,11 L29.414,10 C29.414,5.589 25.825,2 21.414,2 C17.003,2 13.414,5.589 13.414,10 L13.414,11 Z M8.414,42 L34.414,42 L34.414,22 L8.414,22 L8.414,42 Z M31.414,17 L29.414,17 L29.414,20 L13.414,20 L13.414,17 L11.414,17 L11.414,20 L6.414,20 L6.414,44 L36.414,44 L36.414,20 L31.414,20 L31.414,17 Z" id="AWS-Site-to-Site-VPN_48_Squid"/>
        </g>
    </g>
</svg><rect x="91" y="5" width="24" height="16" rx="8" ry="8" fill="#37bb65"/><text x="103" y="14" style="font-family: sans-serif; font-size: 12px; fill: black; text-anchor: middle; dominant-baseline: middle;">1</text><text x="5" y="14" style="font-family: sans-serif; font-size: 14px; fill: black;" dominant-baseline="middle">this</text></g></g></g></svg>